<?xml version="1.0" encoding="utf-8"?>
<!-- Generator: Adobe Illustrator 25.0.0, SVG Export Plug-In . SVG Version: 6.00 Build 0)  -->
<svg version="1.1" id="圖層_1" xmlns="http://www.w3.org/2000/svg" xmlns:xlink="http://www.w3.org/1999/xlink" x="0px" y="0px"
	 viewBox="0 0 310.78 368.5" style="enable-background:new 0 0 310.78 368.5;" xml:space="preserve">
<style type="text/css">
	.st0{clip-path:url(#SVGID_2_);}
	.st1{fill:#FFCC00;}
	.st2{fill:#FFFFFF;}
	.st3{fill:#032E47;}
	.st4{fill:#A8A8A8;}
	.st5{fill:#353233;}
	.st6{fill:#EFACAB;}
	.st7{fill:#3F3F3F;}
	.st8{fill:none;stroke:#FFFFFF;stroke-width:1.5;stroke-linecap:round;stroke-linejoin:round;stroke-miterlimit:10;}
	.st9{fill:none;stroke:#FFFFFF;stroke-width:0.5;stroke-linecap:round;stroke-miterlimit:10;}
	.st10{fill:none;stroke:#A8A8A8;stroke-width:2;stroke-miterlimit:10;}
	.st11{clip-path:url(#SVGID_2_);fill:none;stroke:#A8A8A8;stroke-width:1.5;stroke-linecap:round;stroke-miterlimit:10;}
</style>
<g>
	<defs>
		<rect id="SVGID_1_" width="310.78" height="368.5"/>
	</defs>
	<clipPath id="SVGID_2_">
		<use xlink:href="#SVGID_1_"  style="overflow:visible;"/>
	</clipPath>
	<g class="st0">
		<path class="st1" d="M169.29,154.98c0,0-24.05-15.62-40.62,10.87l-32.83,91.97l-11.38-70.3l-33.41-0.58
			c0,0-2.99,91.98-0.53,111.97c2.46,19.99,33.53,62.05,73.7,35.52c0,0,7.45,17.05-1.54,29.6c-8.99,12.55-19.05,18.76-19.56,27.36
			s10.12,12.79,10.12,12.79l106.46-2.3l-19.74-219.14l-30.33-18.18L169.29,154.98z"/>
		<path class="st2" d="M157.1,43.36c0,0-10.14,3.71-12.94,20.24s-3.75,19.96-7.03,26.82c-3.28,6.87-5.29,25.81,7.03,39.39
			c12.31,13.58,26.02,14.09,26.02,14.09l-0.56,12.8c0,0-0.85,4.88-4.05,7.57c-3.2,2.69-0.29,12.22,5.94,14.24
			c6.23,2.02,12.21-5.4,12.21-5.4l23.8-1.79l23.49-93.83l-27.15-20.28L157.1,43.36z"/>
		<g>
			<g>
				<path class="st3" d="M159.24,36.71c-1.81,1.16-2.25,3.36-1.42,5.28c0.85,1.98,2.7,3.61,4.2,5.11c3.16,3.17,6.61,6.05,10.26,8.63
					c7.32,5.16,15.56,9.05,24.19,11.45c4.9,1.36,9.94,2.21,15.01,2.59c1.93,0.14,1.92-2.86,0-3c-15.83-1.17-31.22-7.59-43.23-17.96
					c-1.13-0.98-9.61-8.16-7.5-9.51C162.38,38.26,160.87,35.67,159.24,36.71L159.24,36.71z"/>
			</g>
		</g>
		<g>
			<g>
				<path class="st3" d="M206.9,70.09c2.68,7.55,3.91,15.49,3.63,23.5c-0.07,1.81,2.36,1.88,2.95,0.4c1.24-3.14,5.26-4.07,7.78-1.89
					c1.48,1.28,1.78,3.07,1.76,4.94c-0.02,1.87-0.12,3.8-0.51,5.63c-0.65,3.12-2.39,5.63-5.5,6.64c-2.74,0.89-5.66,0.52-7.97-1.24
					c-1.54-1.17-3.03,1.44-1.51,2.59c4.96,3.76,12.89,2.33,16.23-2.92c2.07-3.25,2.41-7.79,2.26-11.56
					c-0.15-3.71-2.23-7.01-5.94-8.04c-4.02-1.13-8.02,1.3-9.5,5.05c0.98,0.13,1.96,0.27,2.95,0.4c0.3-8.25-0.97-16.51-3.73-24.29
					C209.15,67.49,206.25,68.27,206.9,70.09L206.9,70.09z"/>
			</g>
		</g>
		<g>
			<g>
				<path class="st3" d="M105.1,76.42c-4.78-2.23-3.48,7.15-3.18,9.29c0.61,4.3,1.98,8.47,3.94,12.35
					c3.9,7.72,10.27,13.99,17.8,18.2c4.22,2.36,8.8,4.08,13.51,5.15c1.88,0.43,2.68-2.46,0.8-2.89
					c-14.41-3.28-27.25-13.14-31.79-27.56c-0.64-2.04-1.13-4.14-1.4-6.26c-0.13-1.03-0.21-2.06-0.24-3.09
					c-0.02-0.48-0.02-0.97-0.02-1.45c0-0.27,0.06-0.57,0.02-0.83c-0.02-0.1-0.01-0.2,0.03-0.29c0.15-0.38-0.18-0.39-0.99-0.03
					C105.32,79.82,106.85,77.23,105.1,76.42L105.1,76.42z"/>
			</g>
		</g>
		<g>
			<g>
				<path class="st3" d="M104.29,78.77c3.71,0.72,7.51,1.36,11.28,0.73c3.82-0.63,6.68-2.91,8.99-5.9
					c5.05-6.54,9.32-13.82,13.02-21.2c3.37-6.72,6.12-13.74,9.69-20.36c3.62-6.7,8.15-12.62,14.43-17.04
					c6.86-4.83,15.96-10.36,24.63-7.45c1.83,0.61,2.62-2.28,0.8-2.89c-7.59-2.54-15.51,0.68-22.02,4.57
					c-3.48,2.08-6.89,4.38-9.88,7.13c-2.69,2.47-5.01,5.32-7.04,8.34c-4.15,6.16-7.06,13.02-10.13,19.75
					c-3.39,7.43-7.22,14.61-11.72,21.43c-1.28,1.94-2.58,3.87-3.99,5.72c-1.27,1.68-2.75,3.27-4.69,4.17
					c-3.89,1.8-8.54,0.89-12.56,0.11C103.2,75.51,102.39,78.4,104.29,78.77L104.29,78.77z"/>
			</g>
		</g>
		<g>
			<g>
				<path class="st3" d="M189.02,6.38c11.56-5.02,25.03-4.17,36.49,0.72c11.92,5.08,21.24,14.48,27.24,25.86
					c6.41,12.16,8.79,25.85,8.37,39.49c-0.25,8.05-0.95,16.07-1.15,24.13c-0.1,4.09-0.17,8.19-0.21,12.29
					c-0.04,3.77,0.06,7.62,1.19,11.24c1.21,3.91,3.5,7.39,4.65,11.31c1.05,3.57,0.85,7.39-0.48,10.86
					c-2.67,6.96-9.88,11.08-17.21,10.45c-1.92-0.17-1.91,2.83,0,3c6.79,0.59,13.59-2.5,17.62-7.99c4.3-5.85,4.66-13.42,1.92-19.98
					c-1.47-3.53-3.41-6.85-4.16-10.64c-0.81-4.04-0.53-8.26-0.47-12.36c0.13-8.66,0.48-17.29,1-25.94
					c0.46-7.75,0.55-15.45-0.61-23.14c-1.04-6.88-2.98-13.6-5.8-19.97c-5.51-12.45-14.75-23.31-26.95-29.59
					c-11.68-6.01-25.71-8.06-38.37-4.07c-1.56,0.49-3.08,1.09-4.58,1.74C185.74,4.56,187.27,7.15,189.02,6.38L189.02,6.38z"/>
			</g>
		</g>
		<g>
			<g>
				<path class="st3" d="M208.02,109.26c-1.87,4.08-5.57,6.95-9.86,8.17c-5.14,1.46-10.58,0.49-15.45-1.47
					c-1-0.4-1.81,0.59-1.9,1.45c-0.36,3.34,0.63,6.59,1.57,9.76c0.9,3.04,1.89,6.08,3.32,8.93c2.48,4.95,6.7,9.37,12.29,10.53
					c1.88,0.39,2.69-2.5,0.8-2.89c-5.05-1.05-8.53-5.09-10.69-9.55c-1.21-2.5-2.04-5.16-2.82-7.81c-0.87-2.93-1.8-5.87-1.46-8.96
					c-0.63,0.48-1.27,0.96-1.9,1.45c5.46,2.2,11.68,3.11,17.4,1.36c4.83-1.48,9.16-4.81,11.29-9.45
					C211.41,109.04,208.82,107.51,208.02,109.26L208.02,109.26z"/>
			</g>
		</g>
		<g>
			<g>
				<path class="st3" d="M149.66,109.05c2.52,4.48,7.17,8.44,12.43,8.99c1.91,0.2,3.96-0.24,5.8-0.76c1.74-0.49,3.82-1.2,4.82-2.82
					c1.01-1.65-1.58-3.16-2.59-1.51c-0.5,0.81-2.37,1.28-3.4,1.55c-1.48,0.39-3.09,0.75-4.63,0.55c-4.19-0.55-7.85-3.96-9.84-7.5
					C151.31,105.85,148.71,107.36,149.66,109.05L149.66,109.05z"/>
			</g>
		</g>
		<path class="st3" d="M265.59,131.06c-2.82-6.64-3.18-12.78-3.56-19.91c-0.07-1.32-0.92-2.41-2-3.01
			c1.43-8.24,2.32-16.55,1.7-24.94c-0.05-0.71-0.22-1.34-0.44-1.91c0.11-0.63,0.23-1.26,0.33-1.89c1.48-7.87,2.19-15.78,0.65-23.96
			c-0.3-1.57-1.03-2.62-1.98-3.24c-0.19-2.36-0.51-4.7-1.03-7.01c-1.3-5.7-4.15-10.85-7.23-15.76c-4.47-7.13-10.4-18.29-19.2-21.11
			c-4.93-2.88-10.92-4.21-16.58-5.04c-8.95-1.32-20.56-1.75-29.01,2.56c-7.42-0.68-15.08,1.13-21.64,4.64
			c-6.07,3.26-14.94,10.23-16.5,17.89c-0.49,0.56-0.99,1.12-1.47,1.68c-4.71,5.51-6.27,12.12-9.64,18.36
			c-1.52,2.8-5.17,6.83-4.14,10.06c-3.44,4.77-7.26,9.74-9.29,15.03c-4.56,3.37-10.47,2.5-15.35,5.05c-0.99-1.02-2.5-1.48-4.09-0.54
			c-5.46,3.25-0.26,13.48,1.72,17.65c3.38,7.12,8.55,12.96,14.79,17.69c0.48,0.36,0.99,0.53,1.5,0.56c2.54,2.01,5.16,3.89,7.93,5.57
			c1.84,1.12,3.59,0.33,4.51-1.06c1.15-0.99,1.79-2.63,0.94-4.36c-1.39-2.84-2.12-5.83-2.5-8.89c0.02-0.17,0.05-0.33,0.05-0.51
			c0.01-3.61,0.9-7.4,2.11-11.09c1.92-2.08,2.38-4.59,2.73-7.27c0.33-0.8,0.65-1.59,0.96-2.35c0.09-0.22,0.14-0.42,0.19-0.63
			c2.09-5.36,3.81-10.63,3.71-16.44c-0.01-0.42-0.09-0.78-0.21-1.12c0.03-0.2,0.05-0.4,0.05-0.59c1.22-3.03,2.09-6.21,2.84-8.4
			c0.25-0.74,0.18-1.49-0.12-2.16c0.1-1.67,1.1-3.44,2.25-5.1c0.08-0.05,0.16-0.08,0.24-0.14c1.33-0.97,2.63-1.96,3.9-3
			c2.35-1.47,4.64-3.03,6.85-4.7c5.69,9.02,14.06,15.92,23.95,20.48c7.04,3.25,14.44,5.5,22,7.18c1.17,0.26,2.34,0.52,3.53,0.76
			c1.41,4.15,3.55,10.15,2,14.03c-1.8,4.5,4.27,8.66,8.08,6.21c1.3-1.13,1.58-1.14,0.85-0.03c0.74,0.7,1.43,1.44,2.08,2.22
			c1.3,1.65,2.28,3.55,3,5.51c0.04,0.11,0.09,0.2,0.14,0.31c-0.21,0.87-0.43,1.75-0.65,2.65c-0.72,0.65-1.25,1.59-1.47,2.86
			c-0.65,3.81-4.21,8.52-8.29,8.07c-4.45-0.49-6.22,0.15-9.3,3.43c-1.64,1.75-5.26,3.39-8.22,5.41c-2.72-0.17-5.44-0.5-8.15-0.85
			c-0.17-0.02-0.32-0.01-0.48-0.01c-0.06-0.14-0.12-0.27-0.19-0.41c-1.88-4.09-7.91-0.54-6.04,3.53c2.24,4.88,4.06,10.67,7.24,15.01
			c0.68,0.93,1.49,1.72,2.36,2.4c0.86,1.25,1.78,2.45,2.72,3.59c2.47,3,6.75,1.45,8.64-1.11c2.08-2.82,6.91-4.69,10.24-5
			c3.72-0.35,9.28-1.08,12.83,0.31c3.41,1.34,6.26,4.95,9.16,7.14c2.15,1.63,4.38,3,6.78,4.03c0.14,0.55,0.39,1.08,0.78,1.56
			c7.59,9.34,18.87,2.27,23.91-6.16C269.82,140.12,267.52,135.6,265.59,131.06z"/>
		<path class="st4" d="M164.39,70.5c0.07-3.81-2.55-7.08-5.96-8.8c-1.79-0.9-3.73-1.43-5.69-1.67c-0.89-0.11-1.99-0.29-2.72,0.31
			c-0.19,0.16-0.3,0.35-0.38,0.55l-0.02-0.01c0,0-0.53,0.94,0.49,1.63c0.89,0.61,0.82-0.16,3.69,0.98c0.35,0.15,0.7,0.3,1.05,0.45
			c0.07,0.03,0.14,0.06,0.22,0.1c2.83,1.28,5.5,2.97,6.87,5.83c0.01,0.13,0.03,0.26,0.02,0.4C161.93,71.81,164.36,72.04,164.39,70.5
			z"/>
		<path class="st4" d="M177.26,76.16c2.64-2.75,6.8-3.21,10.44-2.03c1.9,0.62,3.65,1.62,5.21,2.84c0.71,0.55,1.61,1.2,1.7,2.14
			c0.02,0.24-0.03,0.46-0.12,0.66l0.02,0.01c0,0-0.28,1.04-1.5,0.81c-1.06-0.2-0.46-0.69-3.3-1.91c-0.35-0.15-0.71-0.29-1.07-0.42
			c-0.07-0.03-0.14-0.06-0.22-0.08c-2.91-1.09-6-1.78-8.98-0.73c-0.1,0.09-0.2,0.17-0.3,0.27C178.08,78.82,176.2,77.27,177.26,76.16
			z"/>
		<g>
			<path class="st5" d="M179.84,86.58c-0.02,0.02-0.04,0.04-0.06,0.06c0.02-0.02,0.07-0.06,0.11-0.1c-0.01,0.01-0.02,0.01-0.03,0.02
				C179.86,86.57,179.85,86.58,179.84,86.58z"/>
			<path class="st5" d="M186.07,82.99c-2.95-1.97-7.49-1.34-9.71,1.45c-0.34,0.43-0.59,0.84-0.59,1.41c0,0.49,0.22,1.08,0.59,1.41
				c0.72,0.66,2.13,0.87,2.83,0c0.18-0.23,0.39-0.44,0.6-0.63c-0.1,0.08-0.02,0,0.06-0.06c0,0,0-0.01,0.01-0.01
				c0.05-0.04,0.1-0.08,0.15-0.12c-0.05,0.05-0.07,0.06-0.11,0.09c0.13-0.08,0.25-0.17,0.38-0.24c0.11-0.06,0.22-0.12,0.34-0.17
				c0.04-0.01,0.08-0.03,0.11-0.04c0.28-0.1,0.58-0.16,0.87-0.22c0.03,0,0.05-0.01,0.08-0.01c0.16-0.01,0.32-0.02,0.49-0.02
				c0.13,0,0.26,0.01,0.38,0.02c-0.03-0.01-0.06-0.01-0.09-0.02c0.05,0.01,0.1,0.02,0.15,0.03c0.02,0,0.03,0,0.05,0
				c0.09,0.01,0.18,0.04,0.17,0.05c0.1,0.02,0.2,0.04,0.3,0.07c0.05,0.02,0.14,0.03,0.22,0.05c0.01,0.01,0.02,0.01,0.03,0.02
				c0.07,0.04,0.15,0.07,0.22,0.11c0.16,0.08,0.31,0.18,0.46,0.28c0.87,0.58,2.25,0.2,2.74-0.72
				C187.31,84.73,187,83.62,186.07,82.99z"/>
			<path class="st5" d="M182.61,85.87c-0.02,0-0.04,0-0.06,0c0.18,0.05,0.26,0.06,0.27,0.05c-0.06-0.01-0.11-0.03-0.17-0.04
				C182.64,85.88,182.62,85.87,182.61,85.87z"/>
		</g>
		
			<ellipse transform="matrix(0.3245 -0.9459 0.9459 0.3245 22.5548 214.9551)" class="st6" cx="161.78" cy="91.69" rx="4.44" ry="4.71"/>
		<path class="st5" d="M150.08,84.29L150.08,84.29c-1.81-0.62-2.77-2.59-2.15-4.4l1.92-5.61c0.62-1.81,2.59-2.77,4.4-2.15h0
			c1.81,0.62,2.77,2.59,2.15,4.4l-1.92,5.61C153.86,83.95,151.89,84.91,150.08,84.29z"/>
		<g>
			<g>
				<path class="st4" d="M158.32,40.73c-7.94,4.37-13.17,12.22-14.58,21.12c-0.84,5.29-1.21,10.58-2.59,15.79
					c-1.37,5.19-3.83,9.94-5.43,15.04c-2.71,8.62-2.06,18.19,1.32,26.54c3.37,8.31,9.34,15.23,16.92,20
					c4.21,2.65,8.87,4.63,13.7,5.85c2.37,0.6,4.79,1.01,7.22,1.25c2.15,0.21,4.65,0.27,6.17-1.53c0.87-1.03-0.61-2.52-1.48-1.48
					c-1.28,1.52-3.73,1.04-5.46,0.84c-2.11-0.24-4.21-0.65-6.26-1.19c-4.08-1.07-8.01-2.69-11.65-4.83
					c-7.24-4.26-13.13-10.55-16.6-18.23c-3.55-7.85-4.5-16.96-2.24-25.3c1.25-4.64,3.54-8.92,4.99-13.5
					c1.49-4.69,2.34-9.53,2.89-14.41c0.59-5.19,1.45-10.11,4.2-14.64c2.42-3.98,5.87-7.25,9.95-9.49
					C160.56,41.89,159.5,40.08,158.32,40.73L158.32,40.73z"/>
			</g>
		</g>
		<path class="st1" d="M151.23,292.41l33.38-122.48c0,0,6.05-30.96,32.96-35.26c0,0,23.58-1.1,32.63,31.88s11.52,55.73,12.75,79.41
			c1.23,23.68,7.5,60.04,15.93,76.16s23.54,40.31,31.89,46.4l-62.92,47.63c-5.67,4.29-13.61,3.94-18.86-0.86
			c-7.93-7.25-18.92-17.7-24.18-24.52c-8.76-11.35-23.43-41-23.43-44.78S151.23,292.41,151.23,292.41z"/>
		<path class="st7" d="M170.06,155.2c0,0-21.46,4.3-22.47,54.68s-6.12,125.68-11.98,142.06c-5.86,16.37-17.4,25.57-14.99,35.65
			c2.41,10.09,5.06,2.68,5.06,2.68s17.83-6.89,29.9,0.62c12.07,7.51,32.62,3.85,42.02,6.85c9.4,3,15.88,3.13,15.88,3.13
			L184.8,173.42c0,0-6.77,6.22-12.34,3.65c-5.57-2.56-1.83-13.54-1.83-13.54L170.06,155.2"/>
		<polyline class="st8" points="154.67,156.61 123.97,202.48 134.66,203.88 125.43,214.82 133.27,280.16 		"/>
		<g>
			<path class="st8" d="M215.69,305.39c2.56,0,21.01-10.8,23.76-12.21c2.76-1.41,20.11,5.63,20.11,5.63l-34.94,28.13
				c0,0-5.75,1.02-8.93-0.87c-3.18-1.88-5.88-3.84-5.88-3.84"/>
			<path class="st8" d="M204.7,329.73c0,0,26.53,31.2,27.38,31.84c0.85,0.64,9.47,5.19,13.84,2.94c4.37-2.25,24-18.57,24-18.57
				s2.9-7.02,2.37-13.79l-20.9-26.75"/>
			<line class="st8" x1="246.68" y1="353.67" x2="252.56" y2="360.62"/>
			<line class="st8" x1="262.84" y1="342.57" x2="268.72" y2="349.53"/>
		</g>
		<path class="st9" d="M105.89,82.8c4.08,0.86,8.26,1.52,12.41,1.12s8.31-1.95,11.2-4.95c1.42-1.49,2.5-3.27,3.47-5.08"/>
		<path class="st9" d="M107.77,93.64c8.27,2.93,18.14,0.71,24.36-5.5"/>
		<path class="st9" d="M200.89,133.07c13.18-1.13,25.4-10.01,30.54-22.2c0.85-2.01,1.51-4.1,2.07-6.21
			c1.19-4.55,1.84-9.23,1.94-13.93"/>
		<path class="st9" d="M228.64,133.4c3.24-1.33,5.7-4.07,7.63-7c4.12-6.26,6.31-13.77,6.19-21.26"/>
		<path class="st9" d="M243.66,138.06c3.49-5.72,4.97-12.64,4.11-19.28"/>
		<g>
			<path class="st2" d="M87.54,157.19c-0.33-1.6-0.76-3.16-1.21-4.71c-0.11-0.97-0.23-1.92-0.34-2.84c-0.28-2.35-0.6-4.27-2.26-5.78
				c0.78-6.91,1.82-13.92,1-20.85c-0.45-3.79-6.45-3.83-6,0c0.04,0.34,0.05,0.69,0.09,1.03c-2.68,5.78-3.35,12.25-2.5,18.52
				c0,0-0.01,0-0.01,0c-1.68,0.81-2.81,2.46-3.72,4.17c-7.05-0.67-14.32,0.27-21.37,0.02c-8.89-0.32-17.96-1.26-26.78,0.25
				c-3.02,0.52-2.61,4.26-0.43,5.46c0.32,0.64,0.93,1.14,1.91,1.3c2.81,0.45,5.64,0.68,8.47,0.85c0.38,0.25,0.83,0.44,1.37,0.5
				c4.21,0.53,8.4,1.03,12.6,1.45c0.07,0.21,0.15,0.42,0.27,0.62c0.01,0.02,0.05,0.07,0.09,0.13c-1.88,1.65-2.74,4.14-1.75,6.78
				c0.31,0.81,0.73,1.54,1.25,2.18c-1.16,1.58-1.61,3.96-1.3,5.74c0.28,1.6,1.08,2.74,2.16,3.52c-0.68,1.65-0.64,3.56,0.35,5.17
				c0.4,0.66,0.91,1.17,1.47,1.58c0.33,1.26,0.65,2.53,0.98,3.79c0.37,1.44,1.99,2.46,3.45,2.14c0.02,0,0.04,0.01,0.06,0.01
				c3.61,0.21,7.6-0.22,11.27-0.34c2-0.06,3.95-0.35,5.9-0.51c0.05,0,0.1,0,0.15,0c3-0.13,5.53,0.54,8.46,0.87
				c2.76,0.31,3.5-2.71,2.29-4.59c0.14-0.36,0.2-0.78,0.17-1.27c-0.15-2.15-0.28-4.29-0.35-6.44c0.17-0.18,0.33-0.39,0.46-0.63
				c1.38-2.52,2.78-5.09,3.63-7.85c0.48-1.56,0.57-3.05,0.61-4.56c0.08-0.28,0.13-0.6,0.12-0.94c-0.01-0.43-0.03-0.86-0.06-1.28
				c0.02-0.49,0.05-0.98,0.1-1.47C88.23,158.33,87.97,157.67,87.54,157.19z"/>
			<g>
				<g>
					<g>
						<g>
							<path class="st4" d="M48,157.4c-2.25,1.43-3.26,4.21-2.21,6.71c1.16,2.78,4.15,3.62,6.89,3.93
								c3.85,0.43,14.62-0.69,11.75-7.01c-1.19-2.63-3.89-4.68-6.85-4.46c-0.96,0.07-0.96,1.57,0,1.5c2.58-0.18,5.18,1.85,5.78,4.37
								c0.65,2.74-3.9,3.66-5.74,3.98c-2.69,0.46-6.1,0.48-8.57-0.85c-2.71-1.45-2.91-5.2-0.3-6.87
								C49.57,158.18,48.82,156.88,48,157.4L48,157.4z"/>
						</g>
					</g>
					<g>
						<g>
							<path class="st4" d="M47.95,165.69c-1.77,1.09-2.17,3.65-1.88,5.55c0.35,2.27,2.04,3.68,4.26,4.03
								c2.67,0.42,5.53,0.13,8.15-0.45c2.29-0.51,4.73-1.31,6.2-3.26c1.38-1.84,1.53-4.8-0.71-6.07c-0.84-0.48-1.6,0.82-0.76,1.3
								c2.26,1.28,0.38,4.19-1.14,5.15c-2.06,1.29-4.79,1.73-7.18,1.92c-1.96,0.16-5.24,0.53-6.66-1.2
								c-1.1-1.35-1.17-4.66,0.46-5.67C49.52,166.48,48.77,165.18,47.95,165.69L47.95,165.69z"/>
						</g>
					</g>
					<g>
						<g>
							<path class="st4" d="M49.46,174.06c-1.51,1.18-1.69,3.43-1.4,5.19c0.31,1.87,1.47,3.48,3.44,3.76
								c2.32,0.33,4.96-0.41,7.13-1.18c2.01-0.71,4.34-1.59,5.77-3.24c1.38-1.58,1.77-4.17,0.09-5.7c-0.71-0.65-1.78,0.41-1.06,1.06
								c1.7,1.55,0.02,3.79-1.45,4.71c-1.91,1.2-4.19,1.99-6.38,2.48c-1.81,0.41-4.68,1.12-5.7-0.96c-0.72-1.46-0.76-3.98,0.63-5.07
								C51.28,174.53,50.21,173.47,49.46,174.06L49.46,174.06z"/>
						</g>
					</g>
					<g>
						<g>
							<path class="st4" d="M73.24,161.23c-1.52-3.31-2.98-7.09-2.04-10.77c0.39-1.53,1.17-3,2.39-4.03
								c1.07-0.91,2.67-1.16,3.52-2.32c0.93-1.27,0.45-3.29,0.35-4.75c-0.14-1.99-0.3-3.98-0.3-5.98c0-3.52,0.54-7.22,2.6-10.17
								c0.46-0.65,1.13-1.62,1.86-2c1.4-0.73,2.02,1,2.2,2.05c0.35,2.04,0.46,4.15,0.53,6.22c0.13,4.19-0.47,8.24-0.74,12.4
								c-0.24,3.73,0.98,7.06,2.21,10.51c1.33,3.75,2.02,7.52,1.01,11.46c-1.06,4.16-3.69,7.63-4.43,11.92
								c-0.73,4.17-0.4,8.41-0.05,12.6c0.08,0.95,1.58,0.96,1.5,0c-0.36-4.26-0.75-8.64,0.12-12.86c0.85-4.15,3.48-7.59,4.42-11.71
								c0.92-4.06,0.25-7.95-1.12-11.81c-0.67-1.9-1.42-3.79-1.85-5.77c-0.48-2.18-0.34-4.34-0.08-6.54
								c0.53-4.53,0.72-9.05,0.32-13.6c-0.15-1.72-0.13-3.96-1.23-5.4c-0.86-1.12-2.32-1.52-3.55-0.77
								c-2.81,1.72-4.27,5.65-4.82,8.71c-0.76,4.19-0.18,8.43,0.03,12.64c0.03,0.62,0.17,1.49-0.23,2.02
								c-0.28,0.37-0.84,0.58-1.25,0.77c-0.8,0.39-1.54,0.8-2.21,1.41c-1.28,1.16-2.14,2.75-2.59,4.41
								c-1.14,4.15,0.41,8.35,2.14,12.1C72.35,162.87,73.64,162.1,73.24,161.23L73.24,161.23z"/>
						</g>
					</g>
					<g>
						<g>
							<path class="st4" d="M72.55,145.8c-11.31-0.26-22.63-0.45-33.95-0.44c-3.1,0-6.2,0.01-9.29,0.11
								c-1.68,0.05-3.65-0.06-5.25,0.55c-3.33,1.28-3.1,6.12-0.08,7.68c0.7,0.36,1.55,0.49,2.31,0.66c1.42,0.31,2.85,0.58,4.28,0.83
								c6.34,1.15,12.71,2.13,19.09,3.08c0.94,0.14,1.35-1.3,0.4-1.45c-5.12-0.76-10.23-1.56-15.33-2.43
								c-2.92-0.49-5.87-0.96-8.75-1.65c-0.99-0.24-1.52-0.31-2.14-1.15c-1.1-1.47-1.02-3.59,0.92-4.24
								c1.36-0.46,3.18-0.35,4.73-0.4c2.88-0.09,5.77-0.1,8.65-0.11c7.08-0.01,14.17,0.08,21.25,0.19
								c4.39,0.07,8.78,0.15,13.17,0.25C73.52,147.32,73.52,145.82,72.55,145.8L72.55,145.8z"/>
						</g>
					</g>
				</g>
				<line class="st10" x1="51.94" y1="186.96" x2="50.64" y2="182"/>
			</g>
		</g>
		<g>
			<path class="st2" d="M59.78,252.14c-0.28-1.61-1.16-3.05-1.98-4.45c-0.82-1.4-1.64-2.8-2.52-4.16c-1.37-2.12-2.9-4.13-4.64-5.96
				c0.02-0.46-0.07-0.94-0.28-1.39c-1.46-3.18-3.16-6.24-5.1-9.15c-1.03-1.54-2.13-3.03-3.27-4.49c-0.46-0.59-0.92-1.15-1.35-1.75
				c-0.25-0.34-0.48-0.69-0.7-1.05c0-0.01-0.01-0.01-0.01-0.02c0.06-0.33,0.05-0.69-0.05-1.04c-0.33-1.2-1.64-2.06-2.88-1.78
				c-0.16-0.45-0.43-0.86-0.78-1.15c-0.01-0.02-0.02-0.03-0.03-0.05c-1.58-2.8-5.9-0.29-4.32,2.52c0,0,0,0.01,0,0.01
				c-0.08,1.81,1.08,3.79,1.72,5.35c1.05,2.55,2.07,5.12,3.18,7.65c0.71,1.61,1.6,3.11,2.53,4.58c-2.49,0.96-5.03,1.77-7.74,1.61
				c-0.98-0.06-1.69,0.47-2.09,1.2c-2.61-0.17-5.21-0.36-7.82-0.56c-3.19-0.24-6.38-0.56-9.58-0.65c-3.44-0.09-6.86,0.18-10.26,0.68
				c-1.34,0.2-2.07,1.89-1.75,3.08c0.04,0.15,0.1,0.28,0.16,0.4c-0.22,0.67-0.17,1.43,0.2,2.05c0.92,1.56,2.63,1.61,4.24,1.85
				c1.76,0.26,3.52,0.5,5.28,0.71c3.13,0.37,6.19,0.8,9.3,1.35c1.86,0.33,3.75,0.41,5.63,0.5c0.08,0.25,0.19,0.48,0.33,0.7
				c-1.6,0.75-2.85,2.12-2.81,4.01c0.03,1.53,1.03,2.79,2.26,3.6c0.2,0.13,0.41,0.23,0.62,0.33c-0.03,0.04-0.07,0.06-0.1,0.1
				c-0.76,0.91-1.27,1.86-1.72,2.96c-0.34,0.85,0.1,1.8,0.64,2.43c0.41,0.47,0.94,0.83,1.49,1.11c0.18,0.09,0.37,0.17,0.56,0.26
				c-0.04,0.24-0.07,0.47-0.08,0.5c-0.13,0.72-0.26,1.45-0.37,2.17c-0.26,1.7-0.21,3.5,1.05,4.83c0.74,0.78,1.68,1.17,2.68,1.37
				c0.15,0.16,0.33,0.31,0.54,0.44c2.84,1.73,6.36,1.21,9.51,1.8c1.7,0.32,3.48,1.17,5.2,1.23c1.75,0.06,3.17-1.33,4.27-2.53
				c2.35-2.55,3.66-5.8,5.14-8.89c1.53-3.18,3.05-6.37,4.58-9.55C59.6,254.31,59.97,253.28,59.78,252.14z"/>
			<g>
				<g>
					<g>
						<path class="st4" d="M33.02,236.71c-4.84,0.05-9.68,0.09-14.52,0.14c-2.57,0.02-5.14,0.05-7.7,0.07
							c-2.26,0.02-4.57-0.1-6.82,0.13c-1.44,0.14-3.01,0.49-4.05,1.57c-1.09,1.13-1.22,2.78-0.56,4.16c0.79,1.67,2.44,2.6,4.18,3.04
							c2.19,0.55,4.53,0.69,6.77,0.99c5.86,0.78,11.72,1.56,17.59,2.33c0.95,0.13,0.94-1.37,0-1.5c-4.38-0.58-8.75-1.16-13.13-1.74
							c-2.15-0.28-4.29-0.57-6.44-0.85c-1.96-0.26-4.28-0.3-6.05-1.29c-1.64-0.93-2.68-3.28-0.77-4.5c1.33-0.85,3.13-0.78,4.64-0.8
							c4.27-0.04,8.55-0.08,12.82-0.12c4.68-0.04,9.36-0.09,14.04-0.13C33.99,238.2,33.99,236.7,33.02,236.71L33.02,236.71z"/>
					</g>
				</g>
				<g>
					<g>
						<path class="st4" d="M33.61,237.65c1.27,1.62,3.25,2.04,4.69,0.36c1.64-1.91,0.67-4.15-0.51-6.02
							c-1.76-2.78-3.17-5.69-4.39-8.75c-0.84-2.12-3.42-6.6-1.09-8.52c2.45-2.01,5.87,3.67,6.99,5.21c1.8,2.49,3.42,5.1,4.86,7.8
							c1.43,2.69,2.55,5.59,4.33,8.08c1.01,1.42,2.12,2.78,3.19,4.17c1.53,1.99,3.04,3.99,4.43,6.09c1.1,1.67,2.34,3.49,2.75,5.48
							c0.2,0.94,1.64,0.54,1.45-0.4c-0.35-1.67-1.26-3.23-2.15-4.66c-1.2-1.94-2.54-3.79-3.92-5.61c-1.22-1.62-2.48-3.21-3.71-4.83
							c-1.62-2.14-2.77-4.48-3.95-6.88c-1.38-2.82-2.95-5.55-4.7-8.16c-1.6-2.37-3.33-5.13-5.55-6.97c-1.69-1.4-4.12-1.82-5.57,0.15
							c-1.66,2.25-0.52,5.01,0.37,7.32c1.22,3.18,2.47,6.37,4.18,9.33c0.82,1.42,2.76,3.45,2.37,5.21
							c-0.12,0.56-0.54,1.19-1.06,1.45c-0.84,0.42-1.47-0.29-1.95-0.91C34.07,235.83,33.02,236.9,33.61,237.65L33.61,237.65z"/>
					</g>
				</g>
				<g>
					<g>
						<path class="st4" d="M26.98,247.45c-3.09-0.22-6.68,1.68-6.17,5.25c0.26,1.8,1.51,2.24,2.71,3.31
							c1.36,1.22-1.32,2.54-1.83,3.68c-0.67,1.48,0.21,2.97,1.35,3.92c0.58,0.49,1.42,0.71,1.96,1.2c0.79,0.72-0.43,1.92-0.62,2.78
							c-0.79,3.55,2.46,6.15,5.47,7.05c2.45,0.73,5.08,1,7.6,1.43c2.78,0.47,5.56,0.94,8.34,1.41c0.94,0.16,1.35-1.29,0.4-1.45
							c-4.17-0.71-8.34-1.41-12.5-2.12c-2.99-0.51-8.34-1.52-7.88-5.7c0.14-1.3,1.55-2.29,0.94-3.67c-0.56-1.27-2.31-1.52-3.2-2.51
							c-1.51-1.68,0.49-2.58,1.41-3.79c0.65-0.86,0.73-1.93,0.07-2.82c-0.98-1.32-2.94-1.56-2.75-3.59c0.22-2.32,2.75-3.03,4.7-2.89
							C27.94,249.02,27.94,247.52,26.98,247.45L26.98,247.45z"/>
					</g>
				</g>
			</g>
		</g>
		<path class="st1" d="M208.39,140.4c0,0-25.33,20.88-40.28,81.66c-14.95,60.78-18.2,73.93-18.2,73.93l-87.13-52.35
			c0,0-4.4,22.92-19.06,34.23l82.51,66.56c0,0,36.06,25.55,58.24,12.37c22.17-13.18,63.22-132.25,63.22-132.25L208.39,140.4z"/>
		<path class="st8" d="M247.69,224.65c0,0-41.04,119.07-63.22,132.25c-22.17,13.18-58.24-12.37-58.24-12.37l-82.51-66.56
			c0,0,10.09-3.63,19.06-34.34l87.13,52.35c0,0,14.15-79.47,34.88-122.57"/>
	</g>
	<line class="st11" x1="169.4" y1="144.39" x2="170.62" y2="163.53"/>
</g>
</svg>
