<?xml version="1.0" encoding="utf-8"?>
<!-- Generator: Adobe Illustrator 25.0.0, SVG Export Plug-In . SVG Version: 6.00 Build 0)  -->
<svg version="1.1" id="圖層_1" xmlns="http://www.w3.org/2000/svg" xmlns:xlink="http://www.w3.org/1999/xlink" x="0px" y="0px"
	 viewBox="0 0 336.42 128.12" style="enable-background:new 0 0 336.42 128.12;" xml:space="preserve">
<style type="text/css">
	.st0{clip-path:url(#SVGID_2_);fill:#032E47;}
	.st1{clip-path:url(#SVGID_2_);fill:none;stroke:#B0AEB9;stroke-width:2;stroke-miterlimit:10;}
	.st2{clip-path:url(#SVGID_2_);fill:#248F91;}
</style>
<g>
	<defs>
		<rect id="SVGID_1_" width="336.42" height="128.12"/>
	</defs>
	<clipPath id="SVGID_2_">
		<use xlink:href="#SVGID_1_"  style="overflow:visible;"/>
	</clipPath>
	<path class="st0" d="M28.4,87.5c2.85-2.34,4.94-5.3,6.95-8.28c0.74-1.09,0.37-2.56-0.85-3.19c-1.53-0.79-3.1-1.44-4.76-2.01
		c-0.85-0.29-1.31-1.14-1.09-1.95c0.92-3.42,1.64-6.86,2.15-10.41c0.16-1.1,0.37-2.21,0.43-3.31c0.11-1.46,0.16-2.91,0.32-4.36
		h-4.81v-3.46h5.02c0.05-1.66,0.05-3.36,0.16-5.02h7.79c-0.07,1.14-0.15,2.3-0.22,3.45c-0.05,0.85,0.67,1.57,1.59,1.57h1.03
		l1.82-2.11l7.15,1.46l-2.03,2.11c-0.21,4.72-0.21,9.93-1.33,14.55c-0.32,1.3-0.69,2.61-1.12,3.91c-0.27,0.8-0.53,1.66-0.85,2.46
		c-0.48,1.1-1.07,2.21-1.6,3.26c2.13,1.15,6.78,3.71,6.78,6.32c0,1.56-1.98,2.61-3.42,2.61c-3.31,0-4.65-2.96-6.78-4.82
		c-4.69,4.69-6.47,7.55-12.37,10.11c-0.53,0.23-1.16,0.1-1.57-0.3l-0.22-0.22c-0.25-0.25-0.24-0.66,0.03-0.88
		C27.2,88.49,27.82,88.01,28.4,87.5 M36.82,73.34c0.84,0.26,1.76-0.14,2.05-0.92c1.54-4.12,2.44-8.14,2.82-12.61
		c0.11-1.35,0.21-2.76,0.21-4.11c0-0.09,0-0.17,0-0.26c-0.02-0.81-0.73-1.45-1.6-1.45c-0.82,0-1.5,0.57-1.59,1.33
		c-0.38,3.42-0.79,6.83-1.45,10.21c-0.39,2.03-0.95,4-1.52,5.98c-0.22,0.77,0.24,1.57,1.05,1.82L36.82,73.34z M49.01,67.34v-3.56
		h7.85v-4.27c0-0.01,0.01-0.03,0.03-0.03h0.18c1.17,0,2.24-0.69,2.72-1.76c0.33-0.68,0.89-3.18,0.99-3.93
		c0.25-1.83-0.7-2.71-1.98-2.71h-7.66v-3.46l10.07,0c0.75,0,1.43-0.35,1.93-0.9c0.61-0.68,1.53-0.97,2.42-0.77l4.82,1.08
		c0.88,0.2,1.12,1.32,0.41,1.88c-0.1,0.07-0.19,0.15-0.29,0.22c-0.04,0.03-0.08,0.07-0.12,0.11c-0.22,0.23-1,1.06-1.08,1.2
		c-0.85,0.87-1.6,1.84-2.34,2.91c-1.25,2.11-2.1,5.07-2.68,6.14v4.3h7.8v3.56h-7.8v19.01c0,1.2-0.25,2.31-1.29,3.01
		c-1.34,0.9-5.21,1.15-6.9,1.15c-0.4,0-1.69,0-1.99-0.2c-0.35-0.25-0.4-1.86-0.6-2.41c-0.34-1.13-1.96-1.25-3.28-1.32
		c-0.67-0.04-1.2-0.56-1.27-1.22l-0.02-0.17c1.49,0.05,3.03,0.05,4.57,0.05c0.89,0,3.33,0.25,3.33-1.05V67.34H49.01z"/>
	<path class="st0" d="M115.95,83.71c3.07,1.94,7.66,4.14,14.21,5.25c0.93,0.16,1.86-0.31,2.32-1.12l0.76-1.35
		c-6.44-1.56-9.83-3.08-12.43-4.95c-1.09-0.78-1.33-2.32-0.44-3.32c2.5-2.81,5.21-7.22,6.26-14.31c0.21-1.38-0.88-2.62-2.27-2.6
		l-15.75,0.28c-1.39,0.02-2.46-1.21-2.26-2.58c0.11-0.73,0.19-1.41,0.27-2.12c0.13-1.12,1.07-1.96,2.19-1.98l23.32-0.41l-0.05-2.68
		l-22.61,0.39c-1.29,0.02-2.34-1.04-2.29-2.33c0.08-2.07,0.09-3.36,0.07-4.45c0.05-0.19,0.19-0.64,0.18-0.83
		c0-0.2-0.3-0.48-0.45-0.48l-7.24-0.02c0.07,1.02,0.19,2.34,0.2,2.97c0.01,0.69,0.01,1.76-0.01,3.14c-0.02,1.21-1,2.19-2.21,2.21
		l-11.47,0.2l0.05,2.68l11.05-0.19c1.32-0.02,2.38,1.09,2.28,2.4c-0.25,3.42-0.75,7.23-2.25,11.87
		c-3.46,10.58-9.22,15.75-11.16,17.44l1.08,0.84c0.81,0.63,1.95,0.65,2.76,0.01c6.5-5.13,10.26-10.94,12.29-14.99
		c0.83-1.66,3.19-1.62,4.01,0.05c0.9,1.83,2.03,3.68,3.37,5.39c0.78,1,0.55,2.46-0.48,3.21c-5.48,3.99-11.33,5.39-13.57,5.91
		l0.83,1.24c0.51,0.76,1.44,1.16,2.34,0.96c7.22-1.57,12.42-4.32,14.77-5.73C114.34,83.28,115.24,83.26,115.95,83.71 M104.63,67.01
		c0.11-0.36,0.21-0.69,0.31-1.07c0.27-0.96,1.13-1.63,2.13-1.65l3.62-0.06L104.63,67.01z M113.08,71.91
		c-0.77-1.72-1.29-3.39-1.69-4.9c-0.37-1.42,0.67-2.8,2.14-2.83l3.15-0.05c1.42-0.03,2.53,1.26,2.26,2.65
		c-0.38,1.96-0.99,3.65-1.74,5.2C116.35,73.71,113.87,73.67,113.08,71.91"/>
	<path class="st0" d="M191.87,45.68l-26.97,0.11l0.01,2.73l5.36-0.02c1.28,0,2.31,1.07,2.26,2.35c-0.29,7.17-1.46,10.19-7.15,14.72
		l0.93,0.97c0.69,0.73,1.77,0.89,2.67,0.45c9.11-4.49,10.42-11.45,10.65-16.43c0.06-1.19,1.06-2.11,2.24-2.11l3.26-0.01
		c1.26,0,2.28,1.02,2.26,2.28c-0.05,3.03-0.18,7.33-0.7,9.85c-0.48,2.44-1.32,2.83-2.94,2.84c-1.43,0.01-3.55-0.18-4.97-0.42
		l0.51,1.46c0.32,0.9,1.17,1.5,2.13,1.5l4.41-0.02c3.64-0.01,6.15-0.02,7.12-3.54c0.85-3,1.12-10.4,1.19-14.43
		C194.15,46.69,193.13,45.68,191.87,45.68"/>
	<path class="st0" d="M186.11,89.46l4.45-0.02c1.24,0,2.24-1.02,2.24-2.26l-0.07-16.6c-0.01-1.24-1.02-2.24-2.26-2.24l-21.26,0.08
		c-1.24,0-2.24,1.01-2.24,2.26l0.07,16.6c0.01,1.24,1.01,2.24,2.26,2.24l4.4-0.02l-0.01-2.34l12.41-0.05L186.11,89.46z M183.84,84.4
		l-7.91,0.03c-1.24,0-2.25-1-2.26-2.24l-0.04-8.81c-0.01-1.24,1-2.25,2.24-2.26l7.91-0.03c1.24,0,2.25,1,2.26,2.24l0.04,8.81
		C186.09,83.38,185.08,84.39,183.84,84.4"/>
	<path class="st0" d="M151.96,54.32l-2.97,0.01l0.01,2.68l2.97-0.01c1.24-0.01,2.25,1,2.26,2.24l0.04,8.18
		c0,0.92-0.57,1.76-1.43,2.1c-1.09,0.43-1.9,0.72-2.59,0.94c-1.19,0.38-1.84,1.64-1.46,2.82l0.84,2.63
		c0.05,0.15,0.44,0.19,0.49,0.19c0.2,0,0.49-0.2,0.69-0.68c1.96-1.08,2.16-1.18,3.49-1.91l0.05,11.06c0.01,1.61,0.01,2.05-1.22,2.05
		c-0.94,0-1.38-0.04-3.69-0.38l0.38,1.54c0.25,1.01,1.15,1.72,2.19,1.71l4.29-0.02c4.38-0.02,4.52-2.5,4.51-5.04l-0.06-13.25
		c0-0.8,0.44-1.56,1.13-1.96c1-0.58,1.68-1,2.2-1.34c0.73-0.47,1.11-1.32,0.99-2.18l-0.21-1.55c-0.36,0.18-0.64,0.32-0.9,0.45
		c-1.49,0.73-3.23-0.35-3.24-2.01l-0.01-3.39c-0.01-1.24,1-2.25,2.24-2.26l2.38-0.01l-0.01-2.68l-2.38,0.01
		c-1.24,0-2.25-1-2.26-2.24l-0.03-6.62c0.15-0.34,0.19-0.58,0.19-0.88c0-0.24-0.3-0.39-0.39-0.39l-3.96-0.04
		c-1.29-0.01-2.35,1.04-2.3,2.32c0.01,0.28,0.02,0.58,0.02,0.92l0.02,4.72C154.2,53.3,153.2,54.31,151.96,54.32"/>
	<path class="st0" d="M251.39,71.18l4.49-0.05l-0.03-2.73l-26.19,0.29c0.15-0.21,0.33-0.51,0.59-0.98c0.39-0.72,1.14-1.18,1.96-1.19
		l15.61-0.17c1.24-0.01,2.24-1.03,2.22-2.27l-0.08-7.83c-0.01-1.24-1.03-2.24-2.27-2.22l-29.47,0.32c-1.24,0.01-2.24,1.03-2.22,2.27
		l0.08,7.83c0.01,1.24,1.03,2.24,2.27,2.22l4.54-0.05c-0.34,0.83-0.67,1.42-1.11,2.15l-11.47,0.13l0.03,2.73l3.51-0.04
		c2.21-0.02,3.12,2.84,1.3,4.1c-2.56,1.79-4.81,2.68-5.77,3.06l1,1.13c0.62,0.7,1.6,0.95,2.47,0.62c1.59-0.58,3.82-1.52,6.66-3.08
		l0.01,1.36l3.17-0.04c2.01-0.02,3.04,2.4,1.63,3.84c-2.14,2.17-5.54,4.11-10.61,4.93l0.75,1.2c0.48,0.77,1.38,1.18,2.28,1.02
		c6.76-1.18,12.84-3.34,15.76-9.72c0.38-0.82,1.15-1.39,2.06-1.41l2.23-0.02c1.37-0.02,2.43,1.2,2.25,2.56
		c-0.33,2.48-0.75,3.97-0.79,4.05c-0.48,1.12-1.17,1.52-2.74,1.54c-0.54,0.01-3.15-0.11-5.27-0.43l0.65,1.66
		c0.34,0.87,1.18,1.44,2.12,1.43l5.49-0.06c3.1-0.03,4.72-0.59,5.64-2.45c0.71-1.48,1.19-4.03,1.48-6.34
		c0.18-1.46,1.7-2.35,3.07-1.79c1.49,0.62,3.1,1.15,4.97,1.62c0.9,0.22,1.84-0.15,2.36-0.91l0.73-1.05
		c-2.56-0.86-4.78-1.91-6.65-3.17C248.3,74.05,249.22,71.21,251.39,71.18 M222.8,57.03l20.33-0.22l0.02,2.19l-20.33,0.22
		L222.8,57.03z M222.84,61.66l20.33-0.22l0.02,2.24l-20.33,0.22L222.84,61.66z M236.54,75.88l-2.81,0.03
		c0.14-0.68,0.28-1.42,0.38-1.71c0.05-0.1,0.29-0.64,0.29-0.73c0-0.24-0.2-0.44-0.35-0.43l-6.7-0.12c0.11,0.78,0.17,2.04,0.08,3.07
		l-5.66,0.06c1.71-1.06,3.25-2.16,5.06-3.93c0.42-0.41,0.98-0.66,1.57-0.67l8.06-0.09c0.63-0.01,1.22,0.25,1.65,0.7
		c0.01,0.01,0.02,0.02,0.04,0.04C239.51,73.49,238.49,75.86,236.54,75.88"/>
	<path class="st0" d="M255.62,47.27l-11.12,0.12l-0.02-1.9c0.1-0.19,0.24-0.59,0.24-0.88c0-0.1-0.15-0.49-0.3-0.48l-7.04-0.02
		c0.16,0.78,0.26,1.51,0.27,2.43l0.01,0.93l-9.6,0.1l-0.02-1.66c0.1-0.25,0.24-0.59,0.24-0.98c0-0.15-0.25-0.63-0.35-0.63
		l-6.84-0.02c0.16,0.68,0.21,1.41,0.22,2.24l0.01,1.12l-11.32,0.12l0.03,2.73l11.32-0.12l0.03,2.73l6.74-0.07l-0.03-2.73l9.6-0.11
		l0.03,2.73l6.84-0.07l-0.03-2.73l11.12-0.12L255.62,47.27z"/>
	<path class="st0" d="M303.55,80.59c0,1.61,0,2.44-1.82,2.44c-0.93,0-5.41-0.29-6.5-0.39l0.46,1.56c0.28,0.95,1.16,1.61,2.16,1.61
		l7.03-0.01c5.17,0,5.51-2.73,5.51-5.9l-0.01-9.49c0-1.24-1.01-2.25-2.25-2.25l-37.22,0.02l0,2.73l12.47-0.01
		c1.24,0,2.25,1,2.25,2.25l0.01,14.22c0,1.24,1.01,2.25,2.25,2.25l2.44,0c1.24,0,2.25-1.01,2.25-2.25l-0.01-14.21
		c0-1.24,1-2.25,2.25-2.25l6.48,0c1.24,0,2.25,1,2.25,2.24L303.55,80.59z"/>
	
		<rect x="278.53" y="59.45" transform="matrix(1 -1.095902e-03 1.095902e-03 1 -0.0665 0.3185)" class="st0" width="24.16" height="2.73"/>
	<path class="st0" d="M313.74,62.01l1.01-1.25c-8.62-3.31-15.02-9.36-17.97-15.33c-0.39-0.79-1.16-1.32-2.05-1.32l-7.93,0
		c-0.85,0-1.65,0.46-2,1.24c-2.32,5.03-8.46,11.25-18.09,15.39l0.94,1.26c0.58,0.79,1.62,1.12,2.54,0.79
		c6.6-2.38,13.45-6.48,18.99-12.28c0.87-0.92,2.35-0.89,3.21,0.04c3.58,3.85,10.25,9.04,18.83,12.18
		C312.12,63.04,313.14,62.75,313.74,62.01"/>
	<polyline class="st1" points="324.06,34 335.36,66.65 324.06,98.67 	"/>
	<polyline class="st1" points="12.36,34 1.06,66.65 12.36,98.67 	"/>
	<path class="st2" d="M77.09,23.16l-0.78-1.96c-0.75,0.44-1.54,0.85-2.32,1.23l-1.27-1.4c2.75-1.36,4.85-2.68,6.28-3.97l1.5,1.17
		c-0.8,0.69-1.64,1.35-2.5,1.93l0.91,2.28l2.91-1.16L82.5,23l-2.91,1.16l0.25,0.64c1.35,0.43,2.75,0.97,4.21,1.62l-0.47,2.05
		c-1.2-0.79-2.21-1.41-3.02-1.87l2.92,7.33l-1.82,0.72l-2.73-6.87c-0.17,1.7-0.54,3.35-1.15,4.96l-1.63-1.71
		c1.03-2.01,1.58-4.02,1.66-6.06l-0.04-0.09l-2.98,1.18l-0.68-1.71L77.09,23.16z M94.08,29.08l-1.86,0.74l-0.5-1.27l-3.73,1.48
		l0.59,1.48l-1.84,0.73l-5.89-14.8l7.42-2.95L94.08,29.08z M91.03,26.81l-3.93-9.87l-3.73,1.48l3.93,9.87L91.03,26.81z"/>
	<path class="st2" d="M96.09,20.78l-1.25-1.85c1.34-2.62,2.06-5.47,2.19-8.53l2.07,0.31c-0.08,1.57-0.32,3.1-0.74,4.61l3.52,12.12
		L99.92,28l-2.74-9.42C96.85,19.31,96.49,20.05,96.09,20.78 M101.45,17.38l-1.99-0.53c0.8-2.43,1.15-4.87,1.05-7.31l1.95-0.15
		c0.01,0.59,0,1.19-0.02,1.77l7.84-2.28l0.36,1.24c0.04,1.18-0.01,2.36-0.13,3.56l-2.03,0.02c0.19-0.73,0.29-1.53,0.32-2.41
		l-6.51,1.89C102.13,14.67,101.84,16.08,101.45,17.38 M104.28,17.03c0.07,2.69-0.14,5.13-0.61,7.3l-2.03-0.11
		c0.49-1.96,0.73-4.35,0.73-7.16L104.28,17.03z M105.75,26.16l-0.95-1.66c0.77-0.14,1.52-0.3,2.2-0.5c0.45-0.13,0.61-0.43,0.47-0.89
		l-2.7-9.29l1.9-0.55l2.83,9.75c0.36,1.26-0.09,2.08-1.37,2.45L105.75,26.16z M114.28,20.78l-1.51,1.25
		c-1.44-2.43-2.89-4.54-4.32-6.32l1.57-1.07C111.51,16.5,112.94,18.56,114.28,20.78"/>
	<path class="st2" d="M123.41,7.27l-0.61-3.23l2.04-0.39l0.61,3.23l3.35-0.64c-0.7-0.53-1.57-1.04-2.58-1.54l1.08-1.44
		c1.18,0.55,2.23,1.12,3.1,1.73l-0.77,1.09l2.96-0.56l0.36,1.89l-7.14,1.36L126,9.74c0.64,0.85,1.37,1.64,2.15,2.38
		c1.07-1.19,1.94-2.46,2.6-3.82l1.74,0.98c-0.78,1.43-1.79,2.76-3.01,3.96c1.73,1.32,3.7,2.39,5.93,3.22l-1.1,1.87
		c-3.11-1.36-5.7-3.23-7.74-5.59l1.17,6.14c0.25,1.29-0.28,2.07-1.57,2.31l-2.67,0.51l-0.8-1.78c0.86-0.09,1.66-0.18,2.43-0.33
		c0.4-0.08,0.57-0.36,0.48-0.83l-0.78-4.11c-1.5,2.51-3.35,4.74-5.54,6.7l-1.43-1.57c2.6-2.04,4.78-4.51,6.54-7.42l-0.61-3.23
		l-7.44,1.42l-0.36-1.89L123.41,7.27z M122.52,13.67l-1.12,1.57c-0.92-0.87-2.21-1.77-3.82-2.68l1.15-1.57
		C120.18,11.85,121.45,12.75,122.52,13.67"/>
	<path class="st2" d="M143.87,1.55l0.16,1.82l-0.55,0.05l1.3,14.93l-1.91,0.17l-0.25-2.89c-1.18,0.44-2.39,0.84-3.65,1.21l-0.7-1.92
		l1.04-0.24l-0.94-10.81l-0.68,0.06l-0.16-1.82L143.87,1.55z M141.76,5.78l-0.19-2.19l-1.29,0.11l0.19,2.19L141.76,5.78z
		 M142.1,9.66l-0.18-2.1l-1.29,0.11l0.18,2.1L142.1,9.66z M142.45,13.71l-0.2-2.27l-1.29,0.11l0.23,2.59
		C141.61,13.99,142.03,13.86,142.45,13.71 M150.82,15.25c0.47-0.65,0.9-1.36,1.29-2.08c-0.29-1.14-0.6-3.06-0.91-5.76L144.47,8
		l-0.15-1.7l1.27-0.11c-0.21-0.78-0.43-1.51-0.64-2.19l-0.53,0.05l-0.13-1.55l1.97-0.17c-0.17-0.4-0.34-0.75-0.51-1.08l1.9-0.47
		c0.15,0.41,0.31,0.87,0.47,1.39l1.97-0.17l0.14,1.55l-0.55,0.05c-0.07,0.81-0.16,1.58-0.29,2.28l1.62-0.14
		c-0.18-1.55-0.33-3.31-0.5-5.24l1.76-0.15c0.17,1.97,0.32,3.71,0.49,5.24l2.71-0.24l0.15,1.7l-2.69,0.23
		c0.14,1.17,0.27,2.19,0.38,3.06c0.28-0.84,0.52-1.72,0.72-2.62l1.67,0.5c-0.5,1.95-1.1,3.68-1.81,5.23
		c0.27,1.08,0.52,1.67,0.76,1.76c0.21-0.06,0.34-0.81,0.37-2.26l1.57,0.89c-0.15,2.3-0.7,3.51-1.63,3.59
		c-0.49,0.04-0.96-0.24-1.41-0.85c-0.27-0.36-0.5-0.78-0.7-1.22c-0.57,0.89-1.17,1.7-1.79,2.43l-1.45-1.04
		c0.32-0.35,0.61-0.7,0.89-1.07l-3.04,0.26l0.08,0.93l-1.68,0.15l-0.71-8.16l5.05-0.44L150.82,15.25z M148.09,3.72l-1.54,0.14
		c0.2,0.69,0.4,1.41,0.59,2.2l0.7-0.06C147.96,5.24,148.03,4.49,148.09,3.72 M148.79,11.38l-0.11-1.31l-1.7,0.15l0.11,1.31
		L148.79,11.38z M149.04,14.26l-0.12-1.42l-1.7,0.15l0.12,1.42L149.04,14.26z M155.33,4.29l-1.43,0.49c-0.37-1.11-0.8-2.16-1.3-3.15
		l1.4-0.58C154.48,1.98,154.91,3.07,155.33,4.29"/>
	<path class="st2" d="M167.29,0.53l-0.07,3.84c1.63-1.19,2.73-2.65,3.35-4.37l1.95,0.41c-0.12,0.38-0.27,0.75-0.43,1.09l4.5,0.08
		l-0.02,1.43c-0.61,1.45-1.5,2.75-2.63,3.87c1.2,0.91,2.62,1.64,4.23,2.16l-1.18,1.61c-0.21-0.08-0.41-0.14-0.6-0.22l-0.12,7.22
		l-1.96-0.03l0.01-0.68l-4.01-0.07l-0.01,0.68l-1.94-0.03l0.12-7.18c-0.24,0.09-0.43,0.18-0.63,0.26l-1.21-1.64
		c1.71-0.62,3.2-1.33,4.42-2.17c-0.52-0.6-0.98-1.23-1.36-1.92c-0.48,0.45-0.96,0.86-1.47,1.23l-1.01-1.33l-0.04,2.3l-1.84-0.03
		l-0.04,2.49l1.74,0.03l-0.03,1.86l-1.74-0.03l-0.05,2.75c0.75-0.21,1.48-0.45,2.17-0.68l-0.03,1.99c-2.07,0.69-4.45,1.33-7.14,1.91
		l-0.54-1.93c0.29-0.07,0.59-0.12,0.86-0.17l0.11-6.56l1.8,0.03l-0.1,6.14l0.96-0.23L163.44,7l-2.72-0.05l0.11-6.54L167.29,0.53z
		 M165.32,2.32l-2.57-0.04l-0.05,2.89l2.57,0.04L165.32,2.32z M172.45,8.15c-1.07,0.78-2.32,1.48-3.7,2.08l7.44,0.13
		C174.75,9.76,173.49,9.04,172.45,8.15 M174.35,15.15l0.05-3.04l-4.01-0.07l-0.05,3.04L174.35,15.15z M172.51,5.62
		c0.76-0.73,1.4-1.5,1.88-2.32l-3.29-0.06l-0.18,0.24C171.38,4.25,171.9,4.96,172.51,5.62"/>
	<polygon class="st2" points="191.74,1.38 191.17,6.99 198.38,7.73 198.18,9.64 190.97,8.9 190.21,16.29 198.86,17.18 198.66,19.1 
		181.15,17.31 181.35,15.38 188.11,16.07 189.64,1.16 	"/>
	<path class="st2" d="M202.47,20.04l-0.08-1.79c0.41,0.14,0.83,0.25,1.22,0.32c0.31,0.06,0.5-0.1,0.56-0.43l0.74-3.92
		c-0.51,0.08-1.03,0.16-1.52,0.24l-0.13-1.96c0.66-0.03,1.33-0.08,2.01-0.18l0.74-3.9L204.3,8.1l0.35-1.89l1.69,0.32l0.58-3.1
		l1.83,0.34l-0.58,3.1l1.41,0.27l-0.35,1.88l-1.4-0.26l-0.59,3.15c0.46-0.13,0.9-0.25,1.37-0.4l-0.35,1.88
		c-0.47,0.14-0.91,0.27-1.37,0.38l-0.96,5.13c-0.22,1.14-0.88,1.61-1.96,1.41L202.47,20.04z M210.79,21.8l-1.73-0.33l1.39-7.37
		c-0.86,1.39-1.85,2.63-2.96,3.74l-0.42-2.09c1.6-1.32,2.92-2.93,3.91-4.81l-1.77-0.33l0.35-1.87l1.83,0.34l0.36-1.92
		c-0.48-0.01-0.97-0.03-1.44-0.08l-0.3-1.8c1.97,0.14,3.58,0.02,4.85-0.36l0.67,1.75c-0.67,0.17-1.31,0.29-1.96,0.39l-0.44,2.35
		l1.39,0.26l-0.35,1.87l-1.38-0.26l-0.15,0.78c0.65,1.01,1.28,2.11,1.89,3.29l-1.28,1.31c-0.37-1.11-0.7-2.01-0.96-2.71L210.79,21.8
		z M218.41,17.18c0.2,1.6,0.75,3.23,1.65,4.87l-1.61,1.17c-0.58-1.13-1.01-2.28-1.27-3.41c-0.26-1.13-0.39-2.16-0.34-3.04
		c-0.26,0.88-0.72,1.8-1.34,2.78c-0.66,0.96-1.48,1.91-2.45,2.82l-1.06-1.67c1.43-1.24,2.52-2.6,3.27-4.06
		c0.73-1.45,1.19-2.62,1.36-3.51l1.43-7.58l1.73,0.32l-1.43,7.58C218.2,14.32,218.22,15.56,218.41,17.18 M216.27,13.65l-1.59,0.09
		c0.12-1.93,0.19-3.79,0.18-5.61l1.57-0.21C216.46,9.59,216.39,11.51,216.27,13.65 M221.86,8.75c-0.45,2.16-1.02,4.16-1.73,6.03
		l-1.44-0.72c0.67-1.77,1.23-3.67,1.65-5.72L221.86,8.75z"/>
	<path class="st2" d="M237.2,11.39l6.62,1.85l-0.51,1.81l-13.86-3.88l-1.13,4.04c-1.21,4.08-2.64,7.23-4.28,9.46l-1.29-1.94
		c1.36-1.79,2.58-4.47,3.62-8.06l1.64-5.85l6.96,1.95c-0.09-0.42-0.16-0.8-0.26-1.16l2.35,0.26
		C237.12,10.32,237.16,10.82,237.2,11.39 M230.08,16.91l-0.74,2.65c-0.67,2.26-1.61,3.77-2.81,4.58l-0.84-1.22
		c0.98-0.65,1.74-1.9,2.27-3.75l0.74-2.65L230.08,16.91z M231.48,14.46l0.54-1.94l1.83,0.51l-0.54,1.94l2,0.56l-0.49,1.74
		l-2.07-0.58l-2.7,9.6l-1.66-0.47l2.7-9.6l-2.28-0.64l0.49-1.74L231.48,14.46z M234.57,18.09l-1.28,4.57
		c-0.06,0.22,0.01,0.38,0.28,0.45l0.26,0.07c0.29-0.61,0.55-1.31,0.79-2.11l0.75-2.69l1.36,0.38l-0.75,2.69
		c-0.67,2.3-1.53,3.87-2.63,4.73l-0.85-1.24c0.22-0.19,0.44-0.41,0.63-0.65l-0.41-0.12c-0.81-0.23-1.07-0.81-0.81-1.75l1.32-4.72
		L234.57,18.09z M238.12,16.32l0.54-1.94l1.85,0.52l-0.55,1.94l2.21,0.62l-0.49,1.74l-2.3-0.64l-2.7,9.6l-1.66-0.46l2.69-9.6
		l-2.26-0.63l0.49-1.74L238.12,16.32z M241.2,19.99l-1.58,5.62c-0.08,0.29-0.02,0.49,0.25,0.56l0.83,0.23l-0.35,1.24l-1.34-0.38
		c-0.81-0.23-1.06-0.87-0.76-1.91l1.61-5.75L241.2,19.99z"/>
	<path class="st2" d="M257.26,35.87l-1.92-0.78l0.24-0.6l-8.51-3.46l-0.24,0.6l-1.92-0.78l2.93-7.2l12.35,5.02L257.26,35.87z
		 M258.65,17.48l-0.8,1.95l7.04,2.86l-0.73,1.8l-7.04-2.86l-0.87,2.15l6.22,2.53l-0.73,1.8l-14.35-5.84l0.73-1.8l6.2,2.52l0.87-2.15
		l-7.04-2.86l0.73-1.79l7.04,2.86l0.79-1.95L258.65,17.48z M256.29,32.73l1.25-3.06l-8.51-3.46l-1.25,3.06L256.29,32.73z"/>
	<path class="st0" d="M102.33,106.55l-2.41,7.12h0.22c2.66,0,4.9-2.85,5.2-5.29c0.22-1.79-0.61-3.37-3.11-3.37
		c-5.19,0-9.01,2.92-9.61,7.79c-0.2,1.64,0.18,1.89,0.18,2.18c-2.21,0-3.33-0.8-3.05-3.11c0.52-4.26,6.92-8.33,12.27-8.33
		c5.03,0,6.97,2.5,6.65,5.13c-0.23,1.89-1.63,3.88-3.83,5.06c2.56,0.51,3.35,2.73,3.04,5.23c-0.51,4.13-3.98,9.17-7.5,9.17
		c-1.92,0-3.76-0.19-3.51-2.21c0.07-0.54,0.28-1.22,0.66-2.02c0.49,0.99,1.56,1.15,2.01,1.15c1.76,0,3.56-3.17,3.9-5.9
		c0.25-2.08-0.32-3.94-2.43-3.94c-0.42,0-1.03,0.03-1.62,0.1l-4.13,12.28h-4.62l6.86-20.38L102.33,106.55z"/>
	<path class="st0" d="M114.64,125.27c1.22,0,2.41-0.87,3.52-2.34c0.41-2.28,1.69-3.59,2.89-3.69c1.41-2.08,2.5-4.94,3.34-7.37
		l4.77-0.96l-0.06,0.45c-0.65,5.29,1.33,6.89,0.87,10.64c-0.03,0.22-0.05,0.45-0.11,0.67c1-0.8,1.9-1.64,2.34-2.08l0.7,1.09
		c-0.98,0.71-2.4,1.83-3.82,2.92c-1.05,1.76-3.03,2.98-6.01,2.98c-3.08,0-4.75-0.74-5.01-2.79c-1.52,1.67-3.32,2.79-5.92,2.79
		c-3.08,0-4.46-2.34-4.12-5.1c0.5-4.07,3.11-11.22,8.94-11.22c2.63,0,3.97,1.09,3.69,3.33c-0.48,3.91-4.95,6.15-8.05,6.54
		c-0.13,0.51-0.22,0.99-0.26,1.38C112.09,124.62,113.39,125.27,114.64,125.27 M117.82,112.96c-1.8,0-3.71,3.62-4.76,6.64
		c2.95-0.03,5.35-2.56,5.66-4.84C118.81,114.08,118.78,112.96,117.82,112.96 M120.92,123.25c-0.38,0-0.76-0.1-1.12-0.29
		c-0.23,1.89,0.69,2.72,2.39,2.72c1.09,0,2.83-1.35,3.13-3.81c0.24-1.99-0.99-3.69-0.56-7.69c-0.71,1.57-1.41,3.62-2.31,5.22
		c0.74,0.26,0.95,0.83,0.84,1.79C123.14,122.41,122.04,123.25,120.92,123.25"/>
	<path class="st0" d="M136.15,122.44c-0.14,0.38-0.26,0.77-0.3,1.12c-0.08,0.67,0.11,1.15,0.98,1.15c0.22,0,0.58,0,0.85-0.1
		c-1.24,2.76-2.67,2.95-3.76,2.95c-2.24,0-3.02-1.47-2.78-3.46c0.06-0.51,0.2-1.09,0.4-1.67l3.23-9.62h-1.06l0.41-1.28h1.06
		l1.5-4.42l4.82-0.64c0,0-0.75,2.18-1.71,5.06h1.92l-0.41,1.28h-1.92L136.15,122.44z"/>
	<path class="st0" d="M163.83,114.14l-0.93,2.37h-4.81l-3.73,11.06h-4.61l7.24-21.41c-2.48,0.13-4.36,1.54-4.98,6.64
		c-0.2,1.64,0.18,1.89,0.18,2.18c-2.21,0-3.33-0.8-3.05-3.11c0.52-4.26,4.04-8.33,11.95-8.33c1.28,0,3.25,0.38,5.27,0.38
		c0.99,0,2-0.1,2.93-0.38c-0.61,1.35-0.95,3.3-3.52,3.85c-1.47,0-2.95-0.29-4.41-0.61l-2.48,7.37H163.83z"/>
	<path class="st0" d="M171.75,111.55l-0.55,1.6c1.26-0.9,2.63-1.6,3.98-1.6c1.44,0,2.21,0.83,2.05,2.05
		c-0.14,1.12-1.14,2.5-2.71,2.5c-1.79,0-0.64-2.11-1.6-2.11c-0.96,0-1.52,0.35-2.34,1.03l-4.2,12.56h-4.62l5.37-16.03H171.75z"/>
	<path class="st0" d="M191.11,125.27c1.57,0,4.49-1.86,5.9-4.23h1.44c-2.23,3.3-5.71,6.54-9.84,6.54c-3.08,0-4.46-2.34-4.12-5.1
		c0.5-4.07,3.11-11.22,8.94-11.22c2.63,0,3.97,1.09,3.69,3.33c-0.48,3.91-4.95,6.15-8.05,6.54c-0.13,0.51-0.22,0.99-0.26,1.38
		C188.56,124.62,189.86,125.27,191.11,125.27 M194.29,112.96c-1.8,0-3.71,3.62-4.76,6.64c2.95-0.03,5.35-2.56,5.66-4.84
		C195.27,114.08,195.25,112.96,194.29,112.96"/>
	<path class="st0" d="M184.14,111.55l-3.65,10.9c-0.11,0.35-0.21,0.7-0.25,0.99c-0.09,0.71,0.17,1.22,1.45,1.22s3.17-1.8,4.58-2.82
		h1.09c-1.65,1.47-5.8,5.74-8.3,5.74c-2.47,0-3.87-1.09-3.58-3.49c0.06-0.48,0.19-1.03,0.39-1.63l3.64-10.9H184.14z M183.5,104.75
		c1.41,0,2.42,1.15,2.25,2.57c-0.17,1.41-1.46,2.53-2.88,2.53s-2.4-1.12-2.22-2.53C180.83,105.91,182.09,104.75,183.5,104.75"/>
	<path class="st0" d="M209.16,122.44c-0.14,0.35-0.25,0.7-0.29,1.02c-0.09,0.71,0.21,1.19,1.46,1.19c1.28,0,1.89-0.99,3.29-2.02
		h1.09c-1.66,1.48-4.52,4.94-7.02,4.94s-3.84-1.09-3.54-3.49c0.06-0.51,0.19-1.03,0.39-1.63l1.93-5.77c0.1-0.29,0.17-0.58,0.2-0.83
		c0.14-1.15-0.38-1.89-1.24-1.89c-0.77,0-1.37,0.22-2.1,0.67l-4.31,12.95h-4.62l5.37-16.03h4.62l-0.6,1.73
		c1.43-0.96,3-1.73,4.41-1.73c1.73,0,3.46,1.86,3.19,4.01c-0.03,0.26-0.06,0.51-0.16,0.77L209.16,122.44z"/>
	<path class="st0" d="M230.61,105.14l-5.78,17.31c-0.11,0.35-0.25,0.71-0.29,1.03c-0.09,0.71,0.21,1.19,1.46,1.19
		c1.28,0,3.17-1.79,4.58-2.82h1.09c-1.66,1.47-5.8,5.74-8.3,5.74c-2.08,0-3.37-0.77-3.58-2.44c-1.12,1.31-2.73,2.63-4.68,2.63
		c-3.08,0-3.71-2.18-3.47-4.07c0.68-5.51,3.47-12.12,9.88-12.12c0.77,0,1.53,0.32,2.05,0.8l2.22-6.6L230.61,105.14z M216.07,122.83
		c-0.24,1.92,0.78,2.28,1.58,2.28c0.74,0,1.53-0.7,2.25-1.6c0.07-0.32,0.18-0.67,0.32-1.06l2.84-8.49c-0.46-0.45-1.05-0.58-1.5-0.58
		C219.15,113.37,216.6,118.47,216.07,122.83"/>
	<path class="st0" d="M239.19,110.97l-0.05,0.45c-0.65,5.29,1.5,6.83,1.04,10.58c-0.37,2.98-2.58,5.58-6.9,5.58
		c-3.68,0-5.35-1.06-4.96-4.2c0.31-2.53,1.65-4.01,2.94-4.1c1.35-2.08,2.33-4.9,3.18-7.34L239.19,110.97z M231.11,123.25
		c-0.38,0-0.76-0.1-1.12-0.29c-0.23,1.89,0.69,2.72,2.39,2.72c1.09,0,2.83-1.35,3.13-3.81c0.24-1.99-0.99-3.69-0.56-7.69
		c-0.71,1.57-1.41,3.62-2.31,5.22c0.74,0.26,0.95,0.83,0.84,1.79C233.3,122.41,232.24,123.25,231.11,123.25"/>
</g>
</svg>
