<?xml version="1.0" encoding="utf-8"?>
<!-- Generator: Adobe Illustrator 25.0.0, SVG Export Plug-In . SVG Version: 6.00 Build 0)  -->
<svg version="1.1" id="圖層_1" xmlns="http://www.w3.org/2000/svg" xmlns:xlink="http://www.w3.org/1999/xlink" x="0px" y="0px"
	 viewBox="0 0 456.84 413.53" style="enable-background:new 0 0 456.84 413.53;" xml:space="preserve">
<style type="text/css">
	.st0{clip-path:url(#SVGID_2_);}
	.st1{fill:#FFCC00;}
	.st2{fill:#FFFFFF;}
	.st3{fill:#032E47;}
	.st4{fill:#A8A8A8;}
	.st5{fill:#353233;}
	.st6{fill:#EFACAB;}
	.st7{fill:#3F3F3F;}
	.st8{fill:none;stroke:#FFFFFF;stroke-width:1.5;stroke-linecap:round;stroke-linejoin:round;stroke-miterlimit:10;}
	.st9{fill:none;stroke:#FFFFFF;stroke-width:0.5;stroke-linecap:round;stroke-miterlimit:10;}
	.st10{fill:none;stroke:#A8A8A8;stroke-width:2;stroke-miterlimit:10;}
	.st11{clip-path:url(#SVGID_2_);fill:none;stroke:#A8A8A8;stroke-width:1.5;stroke-linecap:round;stroke-miterlimit:10;}
	.st12{fill:#FFFFFF;stroke:#A8A8A8;stroke-width:1.5;stroke-miterlimit:10;}
	.st13{fill:none;stroke:#A8A8A8;stroke-width:1.835;stroke-linecap:round;stroke-linejoin:round;stroke-miterlimit:10;}
	.st14{fill:#5DC2D0;}
	.st15{fill:none;stroke:#FFFFFF;stroke-width:2;stroke-linecap:round;stroke-linejoin:round;stroke-miterlimit:10;}
	.st16{fill:#D9C9BD;}
	.st17{fill:#EC6D65;}
</style>
<g>
	<g>
		<g>
			<g>
				<g>
					<g>
						<path class="st3" d="M181.56,76.15c0.44,3.27,0.87,6.55,1.31,9.82c0.28,2.13,0.13,5.97,2.86,6.61
							c2.83,0.66,4.02-2.81,4.87-4.8c0.97-2.28,1.83-4.6,2.88-6.84c1.01-2.14,2.19-4.24,3.86-5.94c1.71-1.73,3.87-2.76,6.07-3.73
							c2.2-0.97,4.4-1.93,6.27-3.49c2.15-1.79,3.17-4.28,4.08-6.85c0.9-2.53,2.03-4.75,4.35-6.24c2-1.29,4.47-1.84,6.62-0.6
							c1.79,1.03,3.4-1.73,1.62-2.76c-4.03-2.32-8.89-0.77-12.03,2.33c-1.73,1.7-2.7,3.78-3.5,6.03c-0.85,2.36-1.67,4.58-3.76,6.11
							c-1.89,1.38-4.15,2.19-6.26,3.15c-2.16,0.99-4.19,2.19-5.85,3.91c-3.26,3.37-4.9,7.87-6.64,12.14c-0.5,1.23-1,2.49-1.61,3.67
							c-0.04,0.08-0.45,0.66-0.44,0.71c-0.22,0.19-0.09,0.25,0.41,0.19c-0.06-0.1-0.1-0.21-0.12-0.32c0.12-0.59-0.27-1.67-0.35-2.3
							c-0.48-3.6-0.96-7.2-1.44-10.81c-0.11-0.86-0.65-1.59-1.6-1.6C182.38,74.54,181.45,75.3,181.56,76.15L181.56,76.15z"/>
					</g>
				</g>
				<g>
					<g>
						<path class="st3" d="M226.49,55.72c8.62,1.98,17.12,4.47,25.44,7.48c3.94,1.43,7.91,2.9,11.71,4.7
							c3.34,1.59,6.73,3.58,8.99,6.6c2.32,3.1,3.53,7.48,1.74,11.1c-0.91,1.84,1.85,3.46,2.76,1.62c1.8-3.63,1.57-7.69-0.04-11.35
							c-1.63-3.73-4.66-6.57-8.07-8.69c-3.74-2.33-7.94-3.9-12.03-5.48c-4.49-1.73-9.04-3.32-13.64-4.75
							c-5.28-1.64-10.62-3.07-16.01-4.31C225.34,52.17,224.48,55.26,226.49,55.72L226.49,55.72z"/>
					</g>
				</g>
				<g>
					<g>
						<path class="st3" d="M286.06,55.54c4.4-7.53,4.79-17.07,0.95-24.91c-3.51-7.16-10.65-12.55-18.48-14.03
							c-4.91-0.93-9.87-0.25-14.82-0.26c-4.3-0.01-8.53-0.81-12.55-2.33c-3.91-1.48-7.6-3.7-10.75-6.46
							c-1.63-1.43-3.04-3.03-4.46-4.67c-1.23-1.41-2.93-2.91-4.92-2.89c-5.39,0.06-4.98,8.38-3.87,11.8
							c1.64,5.04,5.48,8.78,9.25,12.31c1.5,1.41,3.77-0.85,2.26-2.26c-3-2.81-6.18-5.72-7.9-9.53c-0.82-1.82-1.27-3.84-1.13-5.84
							c0.09-1.28,0.5-4.03,2.28-2.95c1.49,0.9,2.5,2.57,3.67,3.82c1.3,1.39,2.72,2.68,4.23,3.85c3.03,2.37,6.36,4.26,9.93,5.68
							c3.56,1.41,7.33,2.26,11.15,2.55c4.42,0.34,8.84-0.29,13.27-0.11c7.36,0.3,14.37,4.04,18.5,10.2c4.85,7.24,5,16.91,0.63,24.4
							C282.26,55.71,285.03,57.32,286.06,55.54L286.06,55.54z"/>
					</g>
				</g>
				<g>
					<g>
						<path class="st3" d="M173.45,69.96c-2.68-10.89-4.01-24.01,4.5-32.78c1.63-1.68,3.55-3.1,5.72-4.01
							c2.48-1.04,5.36-0.91,7.57-2.56c2.09-1.56,3.61-3.82,5.61-5.51c1.97-1.68,4.18-3.09,6.5-4.24c5.37-2.67,11.41-3.75,17.37-3.19
							c2.05,0.19,2.04-3.01,0-3.2c-5.59-0.53-11.28,0.36-16.47,2.49c-5.32,2.19-9.68,5.53-13.53,9.76
							c-1.15,1.26-2.14,1.91-3.83,2.26c-1.39,0.29-2.74,0.57-4.06,1.1c-2.36,0.95-4.5,2.34-6.36,4.08
							c-3.92,3.65-6.51,8.68-7.57,13.9c-1.54,7.57-0.34,15.33,1.48,22.74C170.85,72.81,173.94,71.96,173.45,69.96L173.45,69.96z"/>
					</g>
				</g>
				<g>
					<g>
						<path class="st3" d="M285.98,54.51c5.72,4.03,9.07,11.01,9.07,17.96c-0.01,7.18-3.93,13.75-9.93,17.59
							c-3.42,2.19-7.34,3.44-11.41,3.49c-2.06,0.02-2.06,3.22,0,3.2c8.25-0.09,16.06-4.54,20.63-11.36
							c4.62-6.89,4.97-15.71,1.72-23.23c-1.81-4.19-4.74-7.78-8.47-10.41C285.91,50.55,284.31,53.33,285.98,54.51L285.98,54.51z"/>
					</g>
				</g>
			</g>
			<path class="st3" d="M287.02,52.88c0.57-1.87,0.91-3.77,1.02-5.67c0.24-0.78,0.43-1.57,0.49-2.4c0.3-3.64-1.36-6.98-2.9-10.17
				c-2.93-6.09-5.6-10.93-12.01-13.69c-5.62-2.41-10.89-3.28-16.57-2.92c-1.56-0.34-3.15-0.59-4.78-0.73
				c-4.4-0.37-7.96-0.44-12.07-2.35c-3.88-1.8-7.45-4.15-10.72-6.89c-0.56-0.47-1.21-0.71-1.87-0.79c-1.01-1.74-2.2-3.3-4-4.29
				c-2.22-1.22-5.4,0.28-5.27,3.02c0.16,3.33,0.42,6.63,1.62,9.71c-0.72-0.17-1.39-0.09-1.98,0.16c-8.2-0.13-16.36,2.45-22.29,8.38
				c-1.54,1.55-3.48,3.63-4.47,5.87c-1.42,0.27-2.78,0.68-4.09,1.18c-2.56,0.93-4.94,2.2-7.04,3.8c-4.41,2.22-7.81,5.39-7.86,10.66
				c-0.78,1.66-1.43,3.39-1.92,5.16c-0.74,2.66-0.52,5.35-0.28,8.06c0.21,2.43-0.08,5.93,0.92,8.19c0.66,1.5,1.48,2.18,3.07,2.59
				c2.87,0.75,5.18,0.69,7.6,2.06c0.6,1.71,0.88,3.61,1.6,5.26c0.01,0.03,0.03,0.04,0.04,0.07c-0.02,0.17-0.05,0.34-0.05,0.52v7.33
				c0,0.6,0.13,1.12,0.35,1.56c0.65,3.32,5.99,4.34,6.75,0.43c0.27-1.4,0.49-2.82,0.71-4.24c0.34-0.28,0.63-0.65,0.85-1.14
				c1.21-2.84,2.66-5.51,4.27-8.08c3.21-1.06,5.94-3.22,8.54-5.53c3.24-0.87,5.57-3.48,7.22-6.51c1.43-1.67,2.32-3.61,3.08-5.64
				c0.29-0.54,0.57-1.08,0.86-1.61c4.13-2.15,8.96-1.91,13.87-1.1c0.4,0.67,1.06,1.2,2.07,1.42c1.12,0.25,2.23,0.5,3.33,0.74
				c1.69,0.96,3.61,1.39,5.8,2.04c4.29,1.27,8.55,2.64,12.78,4.09c3.49,1.2,8.13,2.38,12.44,4.08c-0.03,1.08,0.47,2.15,1.76,2.81
				c3.98,2.05,6.2,6.16,9.02,9.58c-0.02,0.04-0.04,0.08-0.06,0.12c-1.11,2.87-1.98,5.75-2.63,8.76c-0.09,0.41-0.1,0.8-0.05,1.18
				c-0.43,0.69-0.9,1.36-1.44,2.01c-2.42,2.88,0.41,7.16,3.9,5.65c0.75,0.17,1.57,0.09,2.37-0.39c0.77-0.46,1.57-0.91,2.38-1.36
				c0.87,0.07,1.81-0.19,2.65-0.95c0.41-0.36,0.81-0.73,1.2-1.1c2.64-2.1,6-3.2,7.58-6.51c0.39-0.81,0.61-1.66,0.69-2.5
				c0.44-0.38,0.8-0.86,1.01-1.48C298.01,70.95,294.38,60.51,287.02,52.88z"/>
			<path class="st9" d="M260.31,64.72c0,0,20.22-11.21,8.22-32.21"/>
			<path class="st9" d="M253.08,60.12c3.56-2.46,5.67-6.76,5.85-11.09c0.18-4.33-1.47-8.63-4.16-12.02"/>
			<path class="st9" d="M246.17,57.78c0.61-0.92,1.08-1.94,1.3-3.01c0.5-2.39-0.21-4.91-1.49-6.99c-1.28-2.08-3.07-3.78-4.91-5.39"
				/>
		</g>
		<path class="st12" d="M173.91,68.44c0,0-10.72,1.38-9.03,17.04c1.69,15.66,11.54,21.22,11.54,21.22s6.4,41.56-8.84,55.85
			l31.2,22.72l32.74-22.15c0,0-3.61-6.34,0.65-10.29c0,0,14.79-1.55,22.22-10.89c7.43-9.35,9.55-17.8,10.52-23.21
			s1.99-19.85,9.8-28.89c0,0,3.94-11.46,0.86-15.71c-3.08-4.25-9.07-11.35-40.02-19.71c0,0-15.93-8.07-20.76,0.55
			c-4.83,8.62-3.85,8.94-8.74,11.56c-4.88,2.62-11.66,5.88-13.68,12.54c-2.02,6.66-2.8,10.95-5.45,10.95s-4.44-17.75-4.44-17.75
			S178.98,68.71,173.91,68.44z"/>
		<g>
			<g>
				<path class="st3" d="M218.14,112.41c5.7,9.76,16.78,15.88,28.08,15.45c1.92-0.07,1.93-3.07,0-3
					c-10.27,0.39-20.31-5.08-25.49-13.96C219.76,109.23,217.17,110.74,218.14,112.41L218.14,112.41z"/>
			</g>
		</g>
		<g>
			<path class="st4" d="M241.81,86.25c0.07-3.81-2.55-7.08-5.96-8.8c-1.79-0.9-3.73-1.43-5.69-1.67c-0.89-0.11-1.99-0.29-2.72,0.31
				c-0.19,0.16-0.3,0.35-0.38,0.55l-0.02-0.01c0,0-0.53,0.94,0.49,1.63c0.89,0.61,0.82-0.16,3.69,0.98c0.35,0.15,0.7,0.3,1.05,0.45
				c0.07,0.03,0.14,0.06,0.22,0.1c2.83,1.28,5.5,2.97,6.87,5.83c0.01,0.13,0.03,0.26,0.02,0.4
				C239.35,87.55,241.78,87.78,241.81,86.25z"/>
			<path class="st4" d="M254.68,91.9c2.64-2.75,6.8-3.21,10.44-2.03c1.9,0.62,3.65,1.62,5.21,2.84c0.71,0.55,1.61,1.2,1.7,2.14
				c0.02,0.24-0.03,0.46-0.12,0.66l0.02,0.01c0,0-0.28,1.04-1.5,0.81c-1.06-0.2-0.46-0.69-3.3-1.91c-0.35-0.15-0.71-0.29-1.07-0.42
				c-0.07-0.03-0.14-0.06-0.22-0.08c-2.91-1.09-6-1.78-8.98-0.73c-0.1,0.09-0.2,0.17-0.3,0.27C255.5,94.56,253.62,93.01,254.68,91.9
				z"/>
			<g>
				<path class="st3" d="M257.26,102.33c-0.02,0.02-0.04,0.04-0.06,0.06c0.02-0.02,0.07-0.06,0.11-0.1
					c-0.01,0.01-0.02,0.01-0.03,0.02C257.28,102.31,257.27,102.32,257.26,102.33z"/>
				<path class="st5" d="M263.48,98.74c-2.95-1.97-7.49-1.34-9.71,1.45c-0.34,0.43-0.59,0.84-0.59,1.41c0,0.49,0.22,1.08,0.59,1.41
					c0.72,0.66,2.13,0.87,2.83,0c0.18-0.23,0.39-0.44,0.6-0.63c-0.1,0.08-0.02,0,0.06-0.06c0,0,0-0.01,0.01-0.01
					c0.05-0.04,0.1-0.08,0.15-0.12c-0.05,0.05-0.07,0.06-0.11,0.09c0.13-0.08,0.25-0.17,0.38-0.24c0.11-0.06,0.22-0.12,0.34-0.17
					c0.04-0.01,0.08-0.03,0.11-0.04c0.28-0.1,0.58-0.16,0.87-0.22c0.03,0,0.05-0.01,0.08-0.01c0.16-0.01,0.32-0.02,0.49-0.02
					c0.13,0,0.26,0.01,0.38,0.02c-0.03-0.01-0.06-0.01-0.09-0.02c0.05,0.01,0.1,0.02,0.15,0.03c0.02,0,0.03,0,0.05,0
					c0.09,0.01,0.18,0.04,0.17,0.05c0.1,0.02,0.2,0.04,0.3,0.07c0.05,0.02,0.14,0.03,0.22,0.05c0.01,0.01,0.02,0.01,0.03,0.02
					c0.07,0.04,0.15,0.07,0.22,0.11c0.16,0.08,0.31,0.18,0.46,0.28c0.87,0.58,2.25,0.2,2.74-0.72
					C264.73,100.47,264.42,99.36,263.48,98.74z"/>
				<path class="st3" d="M260.03,101.62c-0.02,0-0.04,0-0.06,0c0.18,0.05,0.26,0.06,0.27,0.05c-0.06-0.01-0.11-0.03-0.17-0.04
					C260.06,101.62,260.04,101.62,260.03,101.62z"/>
			</g>
			
				<ellipse transform="matrix(0.3905 -0.9206 0.9206 0.3905 46.4654 287.2853)" class="st6" cx="240.19" cy="108.55" rx="4.44" ry="4.71"/>
		</g>
	</g>
	<path class="st13" d="M179.08,75.66c0,0-9.61-0.75-9.26,10.74"/>
	<path class="st14" d="M154.81,168.95c0,0-27.65-2.63-53.55,15.35S23.9,247.88,8.05,278.7c-15.85,30.83-8.98,68.03,26.75,62.14
		c0,0,24.6-11.15,33.69-3.8c0,0,7.9-2.08,7.99-12.52c0,0,10.61,7.31,18.74-0.81c8.13-8.12,6.61,23.69,5.6,44.42
		c-1.01,20.73-21.03,66.06,17.53,70.43s50.12-1.99,74.91-1.84c24.79,0.14,78.51,9.13,94.34-12.54c15.83-21.67-5.76-54.05-6.29-60.02
		s-1.33-57.42-1.33-57.42s27.96,40.99,37.73,45.24s27.04,19.41,53.52-13.88s23.93-31.33,29.28-34.68c5.35-3.35,7.85-8.55,4.76-11.58
		s-5.83-6.04-0.61-10.58c5.22-4.54,8.4-5.86,3.28-13.51s-8.26-6.06-8.26-6.06s3.06,11.68-17.27,6.85
		c-20.32-4.84-26.39-7.87-30.37-10.14s-7.35-2.82-9.29-0.29s1.71,9.94,1.71,11.65c0,1.71-5.48,6.25-5.48,6.25
		s-6.95-17.72-14.47-35.95c-7.52-18.23-57.71-68.22-84.34-63.5l-39.88,1.12L154.81,168.95z"/>
	<line class="st15" x1="190.61" y1="269.73" x2="190.61" y2="381.57"/>
	<path class="st15" d="M17.46,282.52c0,0,4.28-8.99,13.51-8.3c9.23,0.69,7.92-2.84,9.71-6.15c1.79-3.32,3.93-11.42,11.96-6.84"/>
	<polygon class="st16" points="154.81,170.27 173.02,148.93 203.18,179 174.45,204.24 	"/>
	<polygon class="st16" points="218.41,206.19 200.32,176.58 230.67,158.16 240.94,178.17 	"/>
	<path class="st12" d="M65.63,259.73c0,0-1.96-4.83-5.7-2.39c-3.74,2.43,1.18,25.26,12.61,37.84c11.44,12.59,15.95,9.05,15.95,9.05
		l0.76-5.62c0,0,48.36-36.55,52.68-39.28c4.32-2.73,8.86-3.07,16.95-2.01s37.17-7.61,39.06-9.13s3.39-5.31,2.62-6.39
		c-0.77-1.08-2.48-0.72-2.62-2.24c-0.15-1.52,4.56-2.95,4.1-6.34c-0.46-3.39-3.09-3.71-4.75-4.81s-1.43-3.98-0.09-4.81
		s3.53-6.85,2.66-7.76c-0.87-0.91-6.94-3.58-5.3-5.15c1.64-1.57,40.02-12.88,41.44-13.94c1.42-1.06,3.97-1.67,2.89-4.82
		c-1.07-3.15-17.2-1.09-26.3,0.47c-9.1,1.56-33.27,6.15-33.27,6.15s-11.39-0.61-11.99-5.95s13.13-22.24,11.65-26.53
		c-2.39-6.93-9.61,1.49-10.47,2.09c-0.86,0.6-5.56,5.97-9.49,11.59s-12.52,18.83-15.68,25.55s-6.76,15.35-10.4,18.92
		C129.31,227.8,88.7,253.25,65.63,259.73z"/>
	<line class="st15" x1="315.57" y1="304.45" x2="342.81" y2="272.41"/>
	<path class="st17" d="M440.41,176.58h-35.96c-3.67,0-6.65-2.98-6.65-6.65v-78.5c0-3.67,2.98-6.65,6.65-6.65h35.96
		c3.67,0,6.65,2.98,6.65,6.65v78.5C447.06,173.6,444.08,176.58,440.41,176.58z"/>
	<path class="st2" d="M434.95,166.26h-25.17c-2.91,0-5.27-2.36-5.27-5.27V96.33c0-2.91,2.36-5.27,5.27-5.27h25.17
		c2.91,0,5.27,2.36,5.27,5.27v64.67C440.22,163.9,437.86,166.26,434.95,166.26z"/>
	<path class="st12" d="M353.16,262.54c0,0,14.37-24.93,23.76-48.97l4.96-15.2c0,0-6.74-9.82-5.68-22.89
		c1.05-13.07,4.89-23.88,9.47-32.17c4.58-8.29,6.99-14.88,6.72-19.07c-0.27-4.19,8.49-4.63,9.75,2.92
		c1.26,7.54,0.33,17.06-4.34,23.29c0,0,9.52,17.97,8.89,26.13h36.29c0,0-6.72,6.46-9.17,12.87c-2.44,6.41-8.37,18.06-17.7,20.94
		c0,0-4.47,2.02-9.06,20.92c-4.59,18.9-7.26,38.42-7.26,38.42s-0.85,6.23-18.41,2.68S353.16,262.54,353.16,262.54z"/>
	<path class="st13" d="M397.79,150.45c0,0,13.48,23.94,9.08,40.16"/>
	<circle class="st15" cx="202.26" cy="319.43" r="3.81"/>
	<circle class="st15" cx="202.26" cy="348.47" r="3.81"/>
	<g>
		<path class="st12" d="M445.89,138.63v-37.5c0,0,6.27-4.07,8.04,1.54s-3.75,16.85-3.75,16.85s5.07-0.35,5.73,4.93
			c0.66,5.28-4.62,15.12-4.62,15.12L445.89,138.63z"/>
		<path class="st12" d="M449.55,152.24c-1.08,0.24-8.94-4.08-10.89-7.43c-1.94-3.35,0.93-6.41,3.75-6.96
			c2.82-0.55,10.91-1.29,12.12,0.06C455.74,139.26,459.08,150.15,449.55,152.24z"/>
		<path class="st12" d="M454.24,155.85c-1.74-3.67-6.57-4.68-9.71-2.1c-1.1,0.9-2.51,1.74-4.26,2.22c-5.17,1.4-6.63,2.65-5.57,6.64
			c1.06,3.99,4.18,5.75,12.9,4.98s8.54-7.55,6.69-11.62C454.28,155.93,454.26,155.89,454.24,155.85z"/>
	</g>
	<path class="st13" d="M441.41,137.15c0,0-8.44,4.16,1.32,11.58"/>
	<path class="st13" d="M442.73,154.98c0,0-1.12,1.71-4.71,2.21s-5.94,5.75-0.66,9.07"/>
	<path class="st5" d="M229.05,100.35L229.05,100.35c-1.76-0.75-2.58-2.78-1.84-4.54l2.32-5.46c0.75-1.76,2.78-2.58,4.54-1.84v0
		c1.76,0.75,2.58,2.78,1.84,4.54l-2.32,5.46C232.84,100.28,230.81,101.1,229.05,100.35z"/>
</g>
</svg>
