<svg xmlns="http://www.w3.org/2000/svg" width="78" height="58" viewBox="0 0 78 58">
  <g id="company" transform="translate(-713 -299)">
    <rect id="Rectangle_23864" data-name="Rectangle 23864" width="78" height="58" transform="translate(713 299)" fill="#fff"/>
    <path id="company-2" data-name="company" d="M13.51,53V27.12l18.77-4.35V47.93h2V13.53L47.1,9.6V47.93h1.84V9.67L65,14.75V53Zm22.83-8.12V48h8.71V44.64l-4.52.12-4.19.12ZM15.66,30.4v2.08l1.89-.3V30.05l-1.89.35Zm0,10.22v2.07h1.89V40.51l-1.89.11ZM27.06,40v2.38l2.5-.07V39.86l-2.5.13Zm-4.18.23V42.5l2.27-.07V40.1l-2.27.12Zm-3.81.21V42.6l2.07-.06V40.32l-2.07.11ZM15.66,37v2.1l1.89-.1V36.83Zm11.4-1.14v2.38l2.5-.18V35.63l-2.5.25Zm-4.18.42v2.27l2.27-.17V36.07l-2.27.23Zm-3.81.38v2.17l2.07-.15v-2.2l-2.07.2Zm-3.41-3v2.08l1.89-.22V33.36l-1.89.27ZM27.06,32v2.38l2.5-.29V31.65Zm-4.18.6v2.27l2.27-.27V32.28Zm-3.81.54v2.17l2.07-.24V32.85Zm8-4.83v2.38l2.5-.39V27.85Zm-4.18.77v2.27L25.15,31V28.66l-2.27.42Zm-3.81.7V32l2.07-.33V29.4l-2.07.38Zm17.27-8.06v3.1L40.53,24l4.52-1V19.68l-4.52,1.06-4.19,1Zm0-5.79V19l4.18-1,4.52-1.17V13.44l-4.52,1.29-4.19,1.2Zm0,11.58v3.1L40.53,30l4.52-.7V25.92l-4.52.83-4.19.76Zm0,5.79v3.1l4.18-.4,4.52-.46V32.16l-4.52.59-4.19.55Zm0,5.79v3.1L40.53,42l4.52-.23V38.4l-4.52.36-4.19.33ZM37,11.66,48.46,8.3l13.9,4.6V9.82L48.49,5,37,8.65v3ZM16.74,25.46l15.45-3.67V18.53l-15.45,4.3Z" transform="translate(712.49 299)" fill="#e9e9e9" fill-rule="evenodd"/>
  </g>
</svg>
