<?xml version="1.0" encoding="utf-8"?>
<!-- Generator: Adobe Illustrator 23.1.0, SVG Export Plug-In . SVG Version: 6.00 Build 0)  -->
<svg version="1.1" id="圖層_1" xmlns="http://www.w3.org/2000/svg" xmlns:xlink="http://www.w3.org/1999/xlink" x="0px" y="0px"
	 viewBox="0 0 100 100" style="enable-background:new 0 0 100 100;" xml:space="preserve">
<style type="text/css">
	.st0{fill:#31ADCE;}
	.st1{clip-path:url(#SVGID_2_);}
	.st2{fill:#FFCC00;}
	.st3{fill:none;stroke:#FFFFFF;stroke-width:1.4196;stroke-linecap:round;stroke-linejoin:round;stroke-miterlimit:10;}
	.st4{clip-path:url(#SVGID_2_);fill:#EC6D65;}
	.st5{fill:#EC6D65;}
	.st6{fill:#FFFFFF;}
	.st7{fill:#F26764;}
</style>
<path class="st0" d="M74.71,20.45L74.71,20.45c8.12,0.77,14.48,7.33,15.01,15.48v0c0.22,3.49,1.54,6.82,3.77,9.52l0,0
	c5.2,6.29,5.06,15.43-0.33,21.56l0,0c-2.31,2.63-3.73,5.91-4.06,9.4v0c-0.77,8.12-7.33,14.48-15.48,15.01l0,0
	c-3.49,0.22-6.82,1.54-9.52,3.77l0,0c-6.29,5.2-15.43,5.06-21.56-0.33l0,0c-2.63-2.31-5.91-3.73-9.4-4.06h0
	c-8.12-0.77-14.48-7.33-15.01-15.48v0c-0.22-3.49-1.54-6.82-3.77-9.52l0,0c-5.2-6.29-5.06-15.43,0.33-21.56l0,0
	c2.31-2.63,3.73-5.91,4.06-9.4l0,0c0.77-8.12,7.33-14.48,15.48-15.01l0,0c3.49-0.22,6.82-1.54,9.52-3.77l0,0
	c6.29-5.2,15.43-5.06,21.56,0.33l0,0C67.94,18.7,71.23,20.12,74.71,20.45z"/>
<g>
	<defs>
		<path id="SVGID_1_" d="M74.71,20.45L74.71,20.45c8.12,0.77,14.48,7.33,15.01,15.48v0c0.22,3.49,1.54,6.82,3.77,9.52l0,0
			c5.2,6.29,5.06,15.43-0.33,21.56l0,0c-2.31,2.63-3.73,5.91-4.06,9.4v0c-0.77,8.12-7.33,14.48-15.48,15.01l0,0
			c-3.49,0.22-6.82,1.54-9.52,3.77l0,0c-6.29,5.2-15.43,5.06-21.56-0.33l0,0c-2.63-2.31-5.91-3.73-9.4-4.06h0
			c-8.12-0.77-14.48-7.33-15.01-15.48v0c-0.22-3.49-1.54-6.82-3.77-9.52l0,0c-5.2-6.29-5.06-15.43,0.33-21.56l0,0
			c2.31-2.63,3.73-5.91,4.06-9.4l0,0c0.77-8.12,7.33-14.48,15.48-15.01l0,0c3.49-0.22,6.82-1.54,9.52-3.77l0,0
			c6.29-5.2,15.43-5.06,21.56,0.33l0,0C67.94,18.7,71.23,20.12,74.71,20.45z"/>
	</defs>
	<clipPath id="SVGID_2_">
		<use xlink:href="#SVGID_1_"  style="overflow:visible;"/>
	</clipPath>
	<g class="st1">
		<rect x="24.25" y="55.33" class="st2" width="59.51" height="46.44"/>
		<line class="st3" x1="24.25" y1="55.33" x2="83.76" y2="55.33"/>
	</g>
	<rect x="48.58" y="56.11" class="st4" width="11.66" height="45.67"/>
</g>
<g>
	<g>
		<g>
			<path class="st5" d="M49.94,21.63l-18.39,5.63c0,0-3.83-0.4-4.58-5.16c-0.75-4.76-0.7-10.2,4.47-13.35
				C36.62,5.6,49.64,17.87,49.94,21.63z"/>
			<path class="st3" d="M37.27,15.34l-3.1-0.56c-1.22-0.22-2.39,0.56-2.66,1.77l0,0c-0.21,0.93,0.18,1.91,0.98,2.42
				c1.76,1.12,5.55,2.61,12.67,1.64"/>
		</g>
		<g>
			<path class="st5" d="M50.15,21.57l18.39-5.63c0,0,2.95-2.47,0.9-6.84S64.3,0.26,58.25,0.54C52.21,0.83,48.28,18.29,50.15,21.57z"
				/>
			<path class="st3" d="M57.12,9.26l2.26-2.2c0.89-0.86,2.3-0.87,3.2-0.02l0,0c0.69,0.66,0.92,1.68,0.54,2.56
				c-0.83,1.92-3.14,5.27-9.58,8.46"/>
		</g>
		<path class="st5" d="M52.03,26.21l-0.79,0.24C49.47,27,47.6,26,47.05,24.23l-1.55-5.05c-0.54-1.77,0.45-3.64,2.22-4.18l0.79-0.24
			c1.77-0.54,3.64,0.45,4.18,2.22l1.55,5.05C54.8,23.8,53.8,25.67,52.03,26.21z"/>
		<path class="st3" d="M47.02,24.24l-1.55-5.05c-0.54-1.77,0.45-3.64,2.22-4.18l0.79-0.24c1.77-0.54,3.64,0.45,4.18,2.22l1.55,5.05"
			/>
		
			<rect x="19.43" y="21.57" transform="matrix(0.9562 -0.2928 0.2928 0.9562 -5.5413 16.0784)" class="st2" width="63" height="9.95"/>
	</g>
	<polygon class="st5" points="41.48,23.94 44.67,34.07 61.35,28.83 58.64,18.97 	"/>
</g>
<path class="st5" d="M10.49,42.82c-0.34,0-0.69-0.07-1.05-0.26c-1.24-0.63-1.35-1.91-1.43-2.75c-0.07-0.76-0.12-1.03-0.33-1.13
	c-0.21-0.11-0.46,0.01-1.11,0.4c-0.73,0.44-1.83,1.1-3.07,0.47c-1.24-0.63-1.35-1.91-1.43-2.75C2,36.03,1.94,35.76,1.74,35.66
	l0.91-1.8c1.24,0.63,1.35,1.91,1.43,2.75c0.07,0.76,0.12,1.03,0.33,1.13c0.21,0.11,0.46-0.01,1.11-0.4c0.73-0.44,1.83-1.1,3.07-0.47
	c1.24,0.63,1.35,1.91,1.43,2.75c0.07,0.76,0.12,1.03,0.33,1.13c0.21,0.11,0.46-0.01,1.11-0.4c0.73-0.44,1.83-1.1,3.07-0.47
	l-0.91,1.8c-0.21-0.11-0.46,0.01-1.11,0.4C11.99,42.4,11.3,42.82,10.49,42.82z"/>
<path class="st5" d="M86.1,12.72c-0.34,0-0.69-0.07-1.05-0.26c-1.24-0.63-1.35-1.91-1.43-2.75c-0.07-0.76-0.12-1.03-0.33-1.13
	c-0.21-0.11-0.46,0.01-1.11,0.4c-0.73,0.44-1.83,1.1-3.07,0.47c-1.24-0.63-1.35-1.91-1.43-2.75c-0.07-0.76-0.12-1.03-0.33-1.13
	l0.91-1.8c1.24,0.63,1.35,1.91,1.43,2.75c0.07,0.76,0.12,1.03,0.33,1.13c0.21,0.11,0.46-0.01,1.11-0.4c0.73-0.44,1.83-1.1,3.07-0.47
	c1.24,0.63,1.35,1.91,1.43,2.75c0.07,0.76,0.12,1.03,0.33,1.13c0.21,0.11,0.46-0.01,1.11-0.4c0.73-0.44,1.83-1.1,3.07-0.47
	l-0.91,1.8c-0.21-0.11-0.46,0.01-1.11,0.4C87.6,12.3,86.9,12.72,86.1,12.72z"/>
<path class="st2" d="M91.34,23.27c0,0.32-0.07,0.65-0.25,1c-0.6,1.17-1.81,1.27-2.62,1.33c-0.72,0.06-0.97,0.11-1.07,0.31
	c-0.1,0.2,0,0.44,0.37,1.05c0.41,0.69,1.03,1.73,0.43,2.9c-0.6,1.17-1.81,1.27-2.62,1.33c-0.72,0.06-0.97,0.11-1.07,0.31l-1.7-0.88
	c0.6-1.17,1.81-1.27,2.62-1.33c0.72-0.06,0.97-0.11,1.07-0.31c0.1-0.2,0-0.44-0.37-1.05c-0.41-0.69-1.03-1.73-0.43-2.9
	c0.6-1.17,1.81-1.27,2.62-1.33c0.72-0.06,0.97-0.11,1.07-0.31c0.1-0.2,0-0.44-0.37-1.05c-0.41-0.69-1.03-1.73-0.43-2.9l1.7,0.88
	c-0.1,0.2,0,0.44,0.37,1.05C90.95,21.85,91.34,22.51,91.34,23.27z"/>
<path class="st2" d="M20.36,15.72c0,0.32-0.07,0.65-0.25,1c-0.6,1.17-1.81,1.27-2.62,1.33c-0.72,0.06-0.97,0.11-1.07,0.31
	c-0.1,0.2,0,0.44,0.37,1.05c0.41,0.69,1.03,1.73,0.43,2.9c-0.6,1.17-1.81,1.27-2.62,1.33c-0.72,0.06-0.97,0.11-1.07,0.31l-1.7-0.88
	c0.6-1.17,1.81-1.27,2.62-1.33c0.72-0.06,0.97-0.11,1.07-0.31c0.1-0.2,0-0.44-0.37-1.05c-0.41-0.69-1.03-1.73-0.43-2.9
	c0.6-1.17,1.81-1.27,2.62-1.33c0.72-0.06,0.97-0.11,1.07-0.31c0.1-0.2,0-0.44-0.37-1.05c-0.41-0.69-1.03-1.73-0.43-2.9l1.7,0.88
	c-0.1,0.2,0,0.44,0.37,1.05C19.97,14.3,20.37,14.96,20.36,15.72z"/>
<path class="st5" d="M77.73,27.34c0,0.67-0.54,1.21-1.21,1.21c-0.67,0-1.21-0.54-1.21-1.21c0-0.67,0.54-1.21,1.21-1.21
	C77.19,26.13,77.73,26.67,77.73,27.34z"/>
<path class="st6" d="M91.34,62.32c0,0.67-0.54,1.21-1.21,1.21c-0.67,0-1.21-0.54-1.21-1.21c0-0.67,0.54-1.21,1.21-1.21
	C90.79,61.11,91.34,61.65,91.34,62.32z"/>
<path class="st6" d="M21.03,70.92c0,0.67-0.54,1.21-1.21,1.21c-0.67,0-1.21-0.54-1.21-1.21c0-0.67,0.54-1.21,1.21-1.21
	C20.48,69.71,21.03,70.25,21.03,70.92z"/>
<path class="st2" d="M65.72,30.76c0,0.67-0.54,1.21-1.21,1.21c-0.67,0-1.21-0.54-1.21-1.21c0-0.67,0.54-1.21,1.21-1.21
	C65.18,29.54,65.72,30.09,65.72,30.76z"/>
<g>
	<g>
		<path class="st6" d="M44.69,86.3c-0.58,0-1.14-0.21-1.6-0.59c-0.45-0.38-0.77-0.85-0.96-1.41c-0.07-0.23-0.1-0.44-0.1-0.65
			c0-0.4,0.12-0.78,0.35-1.11c0.38-0.54,0.94-0.83,1.56-0.83c0.13,0.01,0.26,0.01,0.37,0.02v-3.45c-0.01,0-0.01,0-0.02,0
			c-0.16,0.05-0.37,0.08-0.6,0.08c-0.41,0-0.81-0.11-1.2-0.31c-0.6-0.37-0.98-0.88-1.14-1.5l-0.03-0.12v-0.07
			c-0.03-0.16-0.05-0.32-0.05-0.47c0-0.42,0.11-0.82,0.32-1.19c0.37-0.58,0.88-0.94,1.48-1.1c0.37-0.08,0.78-0.18,1.23-0.28v-2.64
			h-0.59c-0.65,0-1.23-0.24-1.68-0.69c-0.46-0.46-0.69-1.04-0.69-1.69c0-0.65,0.24-1.23,0.69-1.68s1.03-0.69,1.68-0.69h0.59v-2.18
			c0-0.66,0.24-1.26,0.7-1.72c0.46-0.46,1.05-0.7,1.71-0.7c0.65,0,1.24,0.24,1.71,0.69c0.48,0.46,0.73,1.06,0.73,1.73v2.18
			c0.64,0,1.22,0.24,1.67,0.69c0.16,0.16,0.29,0.33,0.39,0.52c0.38-0.24,0.81-0.36,1.27-0.36h2.93v-3.07c0-0.65,0.24-1.23,0.69-1.68
			c0.45-0.45,1.03-0.69,1.68-0.69c0.65,0,1.23,0.24,1.68,0.69c0.45,0.45,0.69,1.03,0.69,1.68v3.07h3.19c0.65,0,1.24,0.25,1.71,0.71
			c0.47,0.47,0.71,1.06,0.71,1.71v14.51c0,0.65-0.25,1.24-0.71,1.71c-0.47,0.47-1.06,0.72-1.71,0.72c-0.74,0-1.34-0.25-1.8-0.72
			c-0.26-0.26-0.44-0.56-0.56-0.89h-6.19c-0.11,0.4-0.32,0.77-0.63,1.08c-0.46,0.46-1.05,0.7-1.7,0.7c-0.64,0-1.23-0.24-1.7-0.69
			c-0.47-0.46-0.72-1.05-0.72-1.71v-7.21c-0.1,0.04-0.21,0.08-0.31,0.1l-0.6,0.17v5.29c0,0.86-0.1,1.53-0.32,2.05
			c-0.25,0.6-0.68,1.07-1.27,1.39c-0.65,0.36-1.55,0.57-2.74,0.63l-0.02,0H44.69z M60.87,79.69v-1.83h-0.7v1.83H60.87z M55.43,79.69
			v-1.83H54.9v1.83H55.43z M60.87,73.12v-1.57h-0.7v1.57H60.87z M55.43,73.12v-1.57H54.9v1.57H55.43z M49.46,72.08
			c0.21,0,0.42,0.03,0.62,0.09v-1.7c-0.28,0.12-0.59,0.18-0.92,0.18v1.44C49.26,72.09,49.36,72.08,49.46,72.08z"/>
		<path class="st7" d="M57.8,62.31c0.39,0,0.71,0.13,0.98,0.4c0.27,0.27,0.4,0.59,0.4,0.98v3.88c0,0.13,0.06,0.19,0.19,0.19h4
			c0.39,0,0.72,0.14,1,0.42c0.28,0.28,0.42,0.61,0.42,1v14.51c0,0.39-0.14,0.72-0.42,1c-0.28,0.28-0.61,0.42-1,0.42H63.3
			c-0.4,0-0.74-0.14-1.01-0.42c-0.27-0.28-0.41-0.61-0.41-1c0-0.13-0.06-0.19-0.19-0.19h-7.59c-0.13,0-0.19,0.06-0.19,0.19v0.19
			c0,0.39-0.14,0.71-0.41,0.99c-0.27,0.27-0.6,0.41-0.99,0.41s-0.72-0.14-1-0.41c-0.28-0.27-0.42-0.6-0.42-0.99v-14.7
			c0-0.39,0.14-0.72,0.42-1c0.28-0.28,0.61-0.42,1-0.42h3.74c0.13,0,0.19-0.06,0.19-0.19v-3.88c0-0.39,0.13-0.71,0.4-0.98
			C57.09,62.44,57.42,62.31,57.8,62.31 M59.37,74.12h2.31c0.13,0,0.19-0.06,0.19-0.17v-3.23c0-0.11-0.06-0.17-0.19-0.17h-2.31
			c-0.13,0-0.19,0.06-0.19,0.17v3.23C59.18,74.06,59.24,74.12,59.37,74.12 M54.09,74.12h2.14c0.13,0,0.19-0.06,0.19-0.17v-3.23
			c0-0.11-0.06-0.17-0.19-0.17h-2.14c-0.13,0-0.19,0.06-0.19,0.17v3.23C53.9,74.06,53.96,74.12,54.09,74.12 M59.37,80.7h2.31
			c0.13,0,0.19-0.06,0.19-0.19v-3.47c0-0.11-0.06-0.17-0.19-0.17h-2.31c-0.13,0-0.19,0.06-0.19,0.17v3.47
			C59.18,80.63,59.24,80.7,59.37,80.7 M54.09,80.7h2.14c0.13,0,0.19-0.06,0.19-0.19v-3.47c0-0.11-0.06-0.17-0.19-0.17h-2.14
			c-0.13,0-0.19,0.06-0.19,0.17v3.47C53.9,80.63,53.96,80.7,54.09,80.7 M46.73,62.31c0.39,0,0.73,0.14,1.01,0.41
			c0.28,0.27,0.42,0.61,0.42,1.01v3.01c0,0.11,0.06,0.17,0.17,0.17h0.82c0.39,0,0.71,0.13,0.98,0.4c0.27,0.27,0.4,0.59,0.4,0.98
			c0,0.39-0.13,0.71-0.4,0.98c-0.26,0.26-0.59,0.4-0.98,0.4h-0.82c-0.11,0-0.17,0.06-0.17,0.17v3.37c0,0.05,0.02,0.08,0.05,0.11
			c0.03,0.02,0.07,0.04,0.12,0.04l0.82-0.22c0.1-0.03,0.2-0.05,0.31-0.05c0.23,0,0.44,0.07,0.65,0.22c0.29,0.19,0.46,0.47,0.51,0.82
			c0.02,0.08,0.02,0.16,0.02,0.24c0,0.29-0.08,0.56-0.24,0.82c-0.23,0.32-0.52,0.53-0.89,0.63l-1.18,0.34
			c-0.11,0.03-0.17,0.11-0.17,0.24v5.86c0,0.72-0.08,1.28-0.24,1.66c-0.16,0.39-0.43,0.68-0.82,0.89c-0.51,0.29-1.28,0.46-2.31,0.51
			c-0.03,0-0.06,0-0.1,0c-0.35,0-0.68-0.12-0.96-0.36c-0.31-0.26-0.52-0.58-0.65-0.96c-0.03-0.11-0.05-0.23-0.05-0.34
			c0-0.19,0.06-0.37,0.17-0.53c0.19-0.27,0.44-0.41,0.75-0.41h0.02c0.27,0.02,0.56,0.02,0.87,0.02c0.18,0,0.3-0.04,0.37-0.11
			c0.07-0.07,0.11-0.2,0.11-0.37v-5.09c0-0.03-0.02-0.06-0.06-0.1c-0.03-0.02-0.05-0.03-0.08-0.03c-0.01,0-0.02,0-0.03,0.01
			c-0.26,0.06-0.62,0.15-1.08,0.27c-0.11,0.03-0.23,0.05-0.36,0.05c-0.24,0-0.48-0.06-0.72-0.19c-0.34-0.21-0.55-0.5-0.65-0.87
			v-0.05c-0.03-0.13-0.05-0.25-0.05-0.36c0-0.24,0.06-0.47,0.19-0.7c0.21-0.32,0.5-0.53,0.87-0.63c0.5-0.11,1.09-0.25,1.78-0.41
			c0.13-0.03,0.19-0.1,0.19-0.22v-4.1c0-0.11-0.06-0.17-0.19-0.17h-1.4c-0.39,0-0.71-0.13-0.98-0.4c-0.27-0.27-0.4-0.59-0.4-0.98
			c0-0.39,0.13-0.71,0.4-0.98c0.27-0.27,0.59-0.4,0.98-0.4h1.4c0.13,0,0.19-0.06,0.19-0.17v-3.01c0-0.4,0.14-0.74,0.41-1.01
			C46,62.44,46.33,62.31,46.73,62.31 M57.8,60.31c-0.92,0-1.75,0.34-2.39,0.98c-0.64,0.65-0.98,1.47-0.98,2.39v2.07H52.5
			c-0.33,0-0.66,0.05-0.96,0.14c-0.39-0.39-0.86-0.67-1.37-0.83v-1.33c0-0.95-0.35-1.79-1.03-2.44c-0.66-0.64-1.49-0.98-2.41-0.98
			c-0.93,0-1.76,0.34-2.41,1c-0.65,0.65-0.99,1.49-0.99,2.43v1.2c-0.76,0.09-1.43,0.41-1.98,0.96c-0.64,0.64-0.98,1.47-0.98,2.39
			c0,0.92,0.34,1.75,0.98,2.39c0.55,0.55,1.23,0.87,1.98,0.96v0.87c-0.15,0.03-0.28,0.06-0.42,0.09l-0.03,0.01l-0.03,0.01
			c-0.85,0.22-1.56,0.73-2.04,1.47l-0.03,0.05l-0.03,0.05c-0.3,0.53-0.45,1.1-0.45,1.69c0,0.18,0.02,0.37,0.05,0.56v0.06l0.07,0.3
			c0.23,0.87,0.76,1.58,1.54,2.06l0.05,0.03l0.05,0.03c0.41,0.22,0.84,0.36,1.28,0.41v1.44c-0.7,0.16-1.32,0.57-1.75,1.18
			c-0.35,0.5-0.54,1.08-0.54,1.69c0,0.3,0.04,0.6,0.12,0.89l0.01,0.04l0.01,0.04c0.25,0.74,0.67,1.36,1.26,1.86
			c0.65,0.55,1.43,0.83,2.25,0.83h0.1h0.05l0.05,0c1.36-0.06,2.4-0.31,3.2-0.76c0.54-0.29,0.99-0.7,1.33-1.2
			c0.17,0.35,0.4,0.67,0.7,0.96c0.66,0.64,1.49,0.98,2.4,0.98c0.92,0,1.75-0.34,2.4-1c0.24-0.24,0.44-0.5,0.59-0.79h4.89
			c0.13,0.21,0.28,0.4,0.46,0.59c0.65,0.67,1.5,1.03,2.45,1.03h0.07c0.92,0,1.75-0.35,2.41-1.01c0.66-0.66,1.01-1.5,1.01-2.42V69.18
			c0-0.92-0.35-1.75-1.01-2.41c-0.66-0.66-1.5-1.01-2.42-1.01h-2.19v-2.07c0-0.92-0.34-1.75-0.98-2.39
			C59.55,60.65,58.72,60.31,57.8,60.31L57.8,60.31z"/>
	</g>
</g>
<g>
	<g>
		<path class="st6" d="M86.06,51.75c-2.72,0.33-5.25-0.3-7.52-1.87c-0.92-0.64-1.69-1.38-2.31-2.22c-1.4,3.37-4.76,5.97-8.8,6.49
			c-0.25,0.03-0.49,0.06-0.74,0.07c-3.22,0.2-7.09-0.89-9.46-4.26c-1.2,3.12-3.58,5.19-7.09,6.18c-0.64,0.18-1.28,0.31-1.9,0.39
			c-2.71,0.35-5.21-0.25-7.47-1.78l0.23,1.79l-5.41,0.7c-3.75,0.49-7.5,0.97-11.24,1.45c-0.19,0.02-0.38,0.02-0.57-0.02
			c-1.33,0.77-2.82,1.27-4.45,1.48c-0.27,0.03-0.54,0.06-0.81,0.08c-4.03,0.28-7.22-1.02-9.47-3.88c-2.26-2.86-2.58-6.05-0.95-9.23
			c1.74-3.37,4.57-5.33,8.42-5.83c0.41-0.05,0.82-0.09,1.25-0.11c2.01-0.09,3.95,0.39,5.89,1.48c1.4-1.73,3.25-2.79,5.51-3.14
			l0.38-0.05c1.94-0.25,3.6-0.04,5.1,0.63c1.42,0.65,2.5,1.54,3.22,2.66c1.28-2.22,3.34-3.78,6.14-4.68
			c0.71-0.22,1.43-0.39,2.14-0.48c1.63-0.21,3.27-0.08,4.87,0.4c2.2,0.66,3.89,1.89,5.19,3.81c1.44-3.72,4.43-5.95,8.78-6.52
			c0.5-0.06,1.02-0.11,1.55-0.13c2.85-0.12,6.34,0.99,8.64,4.2c0.61-1.53,1.63-2.9,3.06-4.07c1.59-1.31,3.56-2.15,5.7-2.43
			c2.41-0.31,4.88,0.13,6.96,1.24c2.62,1.4,4.36,3.83,4.78,6.67c0.41,2.82-0.6,5.67-2.77,7.82c-1.75,1.73-3.94,2.75-6.7,3.1
			L86.06,51.75z"/>
		<g>
			<path d="M39.35,52.19c0.16,1.22,0.3,2.3,0.45,3.44c-0.23,0.03-0.42,0.05-0.61,0.08c-5,0.65-9.99,1.3-14.99,1.94
				c-0.18,0.02-0.37-0.03-0.56-0.13c-1.56,1.01-3.33,1.54-5.2,1.67c-3.41,0.24-6.4-0.73-8.56-3.48c-1.95-2.47-2.3-5.25-0.84-8.08
				c1.82-3.54,4.88-5.19,8.77-5.37c2.21-0.1,4.22,0.57,6.22,1.89c0.06-0.16,0.09-0.34,0.18-0.46c1.27-1.74,2.97-2.77,5.11-3.11
				c1.68-0.26,3.31-0.21,4.88,0.5c1.85,0.84,3.12,2.17,3.54,4.21c0.01,0.03,0.04,0.04,0.1,0.11c0.07-0.16,0.14-0.29,0.19-0.43
				c1.06-3.07,3.3-4.9,6.29-5.85c2.1-0.67,4.26-0.71,6.39-0.07c2.76,0.82,4.53,2.58,5.81,5.65c0.97-5.63,4.57-8.22,10.05-8.44
				c3.23-0.13,7.19,1.47,8.99,6.12c0.05-0.35,0.07-0.59,0.11-0.84c0.36-2.23,1.52-3.98,3.23-5.39c3.17-2.61,7.87-3,11.48-1.07
				c4.68,2.5,5.96,8.65,1.76,12.81c-1.72,1.7-3.82,2.53-6.21,2.82c-2.51,0.3-4.75-0.28-6.79-1.69c-1.57-1.08-2.71-2.52-3.28-4.46
				c-0.21,4.65-4.5,8.32-9.24,8.62c-3.44,0.21-7.93-1.18-9.72-6.14c-0.65,4.24-3.01,6.96-7.05,8.1
				C45.86,56.25,42.37,55.28,39.35,52.19z M23.2,47.54c0.03-0.59,0-1.13,0.11-1.63c0.09-0.43,0-0.72-0.33-0.97
				c-0.19-0.14-0.37-0.28-0.57-0.4c-2.36-1.42-4.86-1.57-7.42-0.68c-2.53,0.87-4.25,2.63-4.99,5.2c-1.16,4.04,1.76,8.27,6.11,8.93
				c2.08,0.32,4.07-0.02,5.92-0.99c1.68-0.88,2.9-2.2,3.3-4.12c0.11-0.54,0.09-1.11,0.13-1.74c-2.43,0.32-4.73,0.61-7.02,0.91
				c-0.05-0.38-0.09-0.7-0.13-1.02c2.84-0.37,5.63-0.73,8.43-1.09c0.45,1.78,0.14,3.41-0.75,5.08c0.15-0.1,0.19-0.12,0.23-0.16
				c1.67-1.77,3.36-3.51,4.98-5.32c0.74-0.82,1.41-1.7,1.76-2.79c0.32-1,0.24-1.9-0.52-2.68c-0.72-0.73-1.61-0.82-2.54-0.61
				c-1.3,0.29-2.04,1.45-1.83,2.77c0.04,0.22,0.06,0.44,0.09,0.68C26.52,47.11,24.95,47.32,23.2,47.54z M67.08,52.05
				c1.77-0.23,3.27-0.89,4.53-2c3.5-3.09,3.46-8.06-0.11-11.03c-3.95-3.3-10.62-1.74-12.69,2.96c-1.22,2.78-0.58,6.05,1.64,7.99
				C62.34,51.62,64.55,52.36,67.08,52.05z M55.11,45.75c-0.13-1.37-0.87-2.7-1.99-3.81c-3.39-3.35-8.9-2.79-11.91,0.35
				c-2.7,2.83-2.67,7.1,0.08,9.88c2.48,2.51,6.67,3.06,9.86,1.3C54.04,51.89,55.54,49.07,55.11,45.75z M93.13,41.44
				c-0.2-1.54-0.71-2.81-1.69-3.87c-3-3.21-7.99-3.57-11.41-0.82c-4.28,3.43-3.62,9.67,1.28,12.11c2.2,1.09,4.46,1.18,6.75,0.34
				C90.91,48.15,93.69,45.14,93.13,41.44z M33.12,52.62c2.03-0.26,3.95-0.51,5.96-0.77c-0.87-1.28-1.36-2.63-1.53-4.13
				C36.66,49.86,34.62,50.92,33.12,52.62z"/>
			<path class="st6" d="M23.2,47.54c1.75-0.23,3.33-0.43,4.96-0.64c-0.03-0.24-0.05-0.46-0.09-0.68c-0.21-1.32,0.54-2.48,1.83-2.77
				c0.93-0.21,1.82-0.12,2.54,0.61c0.76,0.78,0.84,1.68,0.52,2.68c-0.34,1.09-1.02,1.97-1.76,2.79c-1.63,1.8-3.32,3.55-4.98,5.32
				c-0.03,0.03-0.08,0.06-0.23,0.16c0.89-1.66,1.2-3.3,0.75-5.08c-2.8,0.36-5.59,0.72-8.43,1.09c0.04,0.32,0.08,0.64,0.13,1.02
				c2.29-0.3,4.58-0.59,7.02-0.91c-0.04,0.63-0.02,1.2-0.13,1.74c-0.4,1.92-1.61,3.24-3.3,4.12c-1.85,0.97-3.84,1.31-5.92,0.99
				c-4.35-0.67-7.27-4.89-6.11-8.93c0.74-2.57,2.46-4.32,4.99-5.2c2.56-0.88,5.06-0.74,7.42,0.68c0.2,0.12,0.38,0.26,0.57,0.4
				c0.33,0.25,0.42,0.54,0.33,0.97C23.2,46.42,23.23,46.95,23.2,47.54z"/>
			<path class="st6" d="M67.08,52.05c-2.52,0.31-4.73-0.42-6.63-2.08c-2.22-1.94-2.86-5.22-1.64-7.99c2.07-4.7,8.74-6.26,12.69-2.96
				c3.56,2.97,3.61,7.94,0.11,11.03C70.35,51.16,68.85,51.82,67.08,52.05z"/>
			<path class="st6" d="M55.11,45.75c0.43,3.32-1.07,6.14-3.95,7.73c-3.2,1.76-7.38,1.21-9.86-1.3c-2.75-2.78-2.78-7.05-0.08-9.88
				c3-3.15,8.52-3.71,11.91-0.35C54.24,43.05,54.98,44.38,55.11,45.75z"/>
			<path class="st6" d="M93.13,41.44c0.56,3.7-2.22,6.7-5.07,7.75c-2.29,0.84-4.55,0.76-6.75-0.34c-4.9-2.44-5.56-8.67-1.28-12.11
				c3.42-2.75,8.42-2.38,11.41,0.82C92.42,38.64,92.93,39.9,93.13,41.44z"/>
			<path class="st6" d="M33.12,52.62c1.5-1.7,3.54-2.76,4.43-4.9c0.17,1.5,0.66,2.85,1.53,4.13C37.07,52.11,35.15,52.35,33.12,52.62
				z"/>
		</g>
	</g>
</g>
</svg>
