<?xml version="1.0" encoding="utf-8"?>
<!-- Generator: Adobe Illustrator 23.0.0, SVG Export Plug-In . SVG Version: 6.00 Build 0)  -->
<svg version="1.1" id="Line" xmlns="http://www.w3.org/2000/svg" xmlns:xlink="http://www.w3.org/1999/xlink" x="0px" y="0px"
	 viewBox="0 0 72.9 71.2" style="enable-background:new 0 0 72.9 71.2;" xml:space="preserve">
<style type="text/css">
	.st0{fill:#FFFFFF;}
</style>
<path class="st0" d="M72.9,30.5C72.9,13.7,56.6,0,36.4,0C16.3,0,0,13.7,0,30.5c0,15.7,14.2,28.7,32.5,30.3c0.5,0.1,2.3,0.6,2.2,2.4
	c-0.2,3.2-2.5,6.8-1.7,7.6c0.7,0.8,2.5,1.2,11-4.8c4.5-3.2,11.7-7.8,18-13.7c4.3-3.5,7.6-8,9.4-12.9C72.4,36.6,73,33.7,72.9,30.5z
	 M22.3,41.9c-0.3,0.3-0.7,0.4-1.3,0.4h-8.2c-0.7,0-1.3-0.2-1.6-0.5c-0.3-0.3-0.5-0.9-0.5-1.6V27.2c0-0.7,0.2-1.2,0.5-1.5
	c0.3-0.3,0.7-0.5,1.2-0.5c0.5,0,0.9,0.2,1.2,0.5c0.3,0.3,0.5,0.9,0.5,1.6v12.2H21c0.5,0,1,0.1,1.3,0.4c0.3,0.3,0.4,0.6,0.4,1
	C22.7,41.3,22.6,41.6,22.3,41.9z M28.5,40.5c0,0.7-0.2,1.2-0.5,1.6c-0.3,0.3-0.7,0.5-1.2,0.5c-0.5,0-0.9-0.2-1.2-0.5
	c-0.3-0.3-0.5-0.9-0.5-1.6V27.2c0-0.7,0.2-1.2,0.5-1.5c0.3-0.3,0.7-0.5,1.2-0.5c0.5,0,0.9,0.2,1.2,0.5c0.3,0.3,0.5,0.9,0.5,1.6V40.5
	z M46.4,40.3c0,1.5-0.6,2.2-1.8,2.2c-0.3,0-0.6,0-0.8-0.1c-0.2-0.1-0.5-0.2-0.7-0.4c-0.2-0.2-0.4-0.4-0.6-0.7
	c-0.2-0.3-0.4-0.5-0.6-0.8l-6.4-9.8v9.8c0,0.6-0.1,1.1-0.4,1.5s-0.7,0.5-1.1,0.5c-0.5,0-0.9-0.2-1.2-0.5c-0.3-0.3-0.4-0.8-0.4-1.4
	v-13c0-0.5,0.1-1,0.2-1.3c0.1-0.3,0.4-0.6,0.7-0.8c0.3-0.2,0.7-0.3,1.1-0.3c0.3,0,0.6,0,0.8,0.1c0.2,0.1,0.4,0.2,0.6,0.4
	c0.2,0.2,0.3,0.4,0.5,0.7c0.2,0.3,0.3,0.5,0.5,0.8l6.5,9.9v-10c0-0.6,0.1-1.1,0.4-1.5c0.3-0.3,0.7-0.5,1.1-0.5
	c0.5,0,0.9,0.2,1.2,0.5c0.3,0.3,0.4,0.8,0.4,1.5L46.4,40.3L46.4,40.3z M62.6,41.9c-0.3,0.2-0.7,0.4-1.2,0.4h-9.2
	c-0.7,0-1.3-0.2-1.6-0.5c-0.3-0.3-0.5-0.9-0.5-1.6V27.6c0-0.5,0.1-0.9,0.2-1.2s0.4-0.5,0.7-0.7s0.7-0.2,1.2-0.2h9
	c0.5,0,0.9,0.1,1.2,0.4s0.4,0.6,0.4,0.9c0,0.4-0.1,0.7-0.4,1c-0.3,0.2-0.7,0.4-1.2,0.4h-7.7v4.1h7.1c0.5,0,0.9,0.1,1.2,0.3
	c0.3,0.2,0.4,0.5,0.4,0.9s-0.1,0.7-0.4,0.9s-0.6,0.4-1.2,0.4h-7.1v4.8h7.9c0.5,0,0.9,0.1,1.2,0.4c0.3,0.2,0.4,0.6,0.4,1
	C63.1,41.3,62.9,41.6,62.6,41.9z"/>
</svg>
