<?xml version="1.0" encoding="utf-8"?>
<!-- Generator: Adobe Illustrator 23.0.3, SVG Export Plug-In . SVG Version: 6.00 Build 0)  -->
<svg version="1.1" id="圖層_1" xmlns="http://www.w3.org/2000/svg" xmlns:xlink="http://www.w3.org/1999/xlink" x="0px" y="0px"
	 viewBox="0 0 241 211" style="enable-background:new 0 0 241 211;" xml:space="preserve">
<style type="text/css">
	.st0{fill:none;stroke:#E5E5E5;stroke-width:2;stroke-linecap:round;stroke-linejoin:round;stroke-miterlimit:10;}
	.st1{fill:none;stroke:#EFEFEF;stroke-width:2.4167;stroke-linecap:round;stroke-linejoin:round;stroke-miterlimit:10;}
	.st2{fill:none;stroke:#EFEFEF;stroke-width:2;stroke-linecap:round;stroke-linejoin:round;stroke-miterlimit:10;}
	.st3{fill:none;stroke:#EFEFEF;stroke-width:1.518;stroke-linecap:round;stroke-linejoin:round;stroke-miterlimit:10;}
	.st4{fill:#FFFFFF;stroke:#CCCCCC;stroke-width:2;stroke-miterlimit:10;}
	.st5{fill:#CCCCCC;}
	.st6{fill:#5DC2D0;}
	.st7{fill:#FFCC00;stroke:#727171;stroke-width:7;stroke-miterlimit:10;}
	.st8{fill:#FFFFFF;stroke:#EC6D65;stroke-width:8;stroke-miterlimit:10;}
	.st9{fill:none;stroke:#FFCC00;stroke-width:9;stroke-miterlimit:10;}
	.st10{fill:#DAD3D2;}
	.st11{fill:#FFFFFF;}
</style>
<g>
	<g>
		<line class="st0" x1="0.8" y1="114.8" x2="48.2" y2="67.4"/>
		<line class="st0" x1="67.7" y1="47.9" x2="115.1" y2="0.6"/>
		<line class="st0" x1="52.3" y1="64" x2="64.3" y2="52.1"/>
	</g>
	<g>
		<line class="st0" x1="193.8" y1="160.6" x2="241.1" y2="113.2"/>
		<line class="st0" x1="178.4" y1="176.7" x2="190.3" y2="164.8"/>
	</g>
	<g>
		<line class="st0" x1="174.4" y1="59.8" x2="206.7" y2="27.4"/>
		<line class="st0" x1="159" y1="75.9" x2="170.9" y2="63.9"/>
	</g>
	<g>
		<line class="st0" x1="45.8" y1="178.5" x2="78.2" y2="146.1"/>
		<line class="st0" x1="30.5" y1="194.6" x2="42.4" y2="182.6"/>
	</g>
	<g>
		<line class="st1" x1="183.6" y1="72.3" x2="197.4" y2="79.5"/>
		<line class="st1" x1="187" y1="82.8" x2="194.1" y2="69"/>
	</g>
	<g>
		<line class="st2" x1="201.8" y1="203" x2="212.3" y2="208.4"/>
		<line class="st2" x1="204.3" y1="210.9" x2="209.8" y2="200.5"/>
	</g>
	<g>
		<line class="st2" x1="8.2" y1="142.3" x2="18.7" y2="147.7"/>
		<line class="st2" x1="10.7" y1="150.2" x2="16.2" y2="139.7"/>
	</g>
	<g>
		<line class="st3" x1="48.4" y1="200.9" x2="56.3" y2="205"/>
		<line class="st3" x1="50.3" y1="207" x2="54.4" y2="199"/>
	</g>
	<g>
		<line class="st2" x1="109.8" y1="34.7" x2="120.3" y2="40.1"/>
		<line class="st2" x1="112.4" y1="42.7" x2="117.8" y2="32.2"/>
	</g>
</g>
<g>
	<g>
		<polygon class="st4" points="132.1,53.8 72.1,53.8 72.1,192.8 168.7,192.8 168.7,89.4 		"/>
	</g>
	<polygon class="st5" points="132.1,53.8 132.1,89.3 168.7,89.4 	"/>
	<g>
		<rect x="83.3" y="102.6" class="st6" width="39.3" height="6.5"/>
		<rect x="127.8" y="102.6" class="st6" width="30.4" height="6.5"/>
	</g>
	<g>
		<rect x="83.3" y="130.3" class="st6" width="39.3" height="6.5"/>
		<rect x="127.8" y="130.3" class="st6" width="30.4" height="6.5"/>
	</g>
	<g>
		<rect x="83.3" y="116.5" class="st6" width="12.7" height="6.5"/>
		<rect x="100.8" y="116.5" class="st6" width="57.4" height="6.5"/>
	</g>
	<g>
		<rect x="83.3" y="158" class="st6" width="39.3" height="6.5"/>
		<rect x="127.8" y="158" class="st6" width="30.4" height="6.5"/>
	</g>
	<g>
		<rect x="83.3" y="171.9" class="st6" width="12.7" height="6.5"/>
		<rect x="100.8" y="171.9" class="st6" width="57.4" height="6.5"/>
	</g>
	<g>
		<rect x="83.3" y="144.2" class="st6" width="12.7" height="6.5"/>
		<rect x="100.8" y="144.2" class="st6" width="57.4" height="6.5"/>
	</g>
	<line class="st7" x1="148.8" y1="172.5" x2="137.1" y2="160.7"/>
	<g>
		<circle class="st8" cx="124.5" cy="144.7" r="26.1"/>
		<line class="st9" x1="147.3" y1="171" x2="162.5" y2="187.2"/>
		<circle class="st10" cx="124.5" cy="144.7" r="19"/>
		<circle class="st11" cx="126.3" cy="132.3" r="7.7"/>
	</g>
</g>
</svg>
