<?xml version="1.0" encoding="utf-8"?>
<!-- Generator: Adobe Illustrator 27.1.1, SVG Export Plug-In . SVG Version: 6.00 Build 0)  -->
<!DOCTYPE svg PUBLIC "-//W3C//DTD SVG 1.1//EN" "http://www.w3.org/Graphics/SVG/1.1/DTD/svg11.dtd" [
	<!ENTITY ns_extend "http://ns.adobe.com/Extensibility/1.0/">
	<!ENTITY ns_ai "http://ns.adobe.com/AdobeIllustrator/10.0/">
	<!ENTITY ns_graphs "http://ns.adobe.com/Graphs/1.0/">
	<!ENTITY ns_vars "http://ns.adobe.com/Variables/1.0/">
	<!ENTITY ns_imrep "http://ns.adobe.com/ImageReplacement/1.0/">
	<!ENTITY ns_sfw "http://ns.adobe.com/SaveForWeb/1.0/">
	<!ENTITY ns_custom "http://ns.adobe.com/GenericCustomNamespace/1.0/">
	<!ENTITY ns_adobe_xpath "http://ns.adobe.com/XPath/1.0/">
]>
<svg version="1.1" id="Layer_1" xmlns:x="&ns_extend;" xmlns:i="&ns_ai;" xmlns:graph="&ns_graphs;"
	 xmlns="http://www.w3.org/2000/svg" xmlns:xlink="http://www.w3.org/1999/xlink" x="0px" y="0px" viewBox="0 0 50 50"
	 style="enable-background:new 0 0 50 50;" xml:space="preserve">
<style type="text/css">
	.st0{fill:#00B900;}
	.st1{fill:#FFFFFF;}
</style>
<metadata>
	<sfw  xmlns="&ns_sfw;">
		<slices></slices>
		<sliceSourceBounds  bottomLeftOrigin="true" height="50" width="50" x="0" y="-50"></sliceSourceBounds>
	</sfw>
</metadata>
<g>
	<circle class="st0" cx="25" cy="25" r="25"/>
	<g id="TYPE_A_19_">
		<g>
			<path class="st1" d="M41.6,23.5C41.6,16.1,34.2,10,25,10c-9.2,0-16.6,6.1-16.6,13.5c0,6.7,5.9,12.3,13.9,13.3
				c0.5,0.1,1.3,0.4,1.5,0.8c0.2,0.4,0.1,1.1,0.1,1.5c0,0-0.2,1.2-0.2,1.4c-0.1,0.4-0.3,1.6,1.4,0.9c1.8-0.7,9.6-5.6,13.1-9.7h0
				C40.5,29.2,41.6,26.5,41.6,23.5"/>
			<g>
				<path class="st0" d="M21.6,19.9h-1.2c-0.2,0-0.3,0.1-0.3,0.3v7.2c0,0.2,0.1,0.3,0.3,0.3h1.2c0.2,0,0.3-0.1,0.3-0.3v-7.2
					C21.9,20,21.8,19.9,21.6,19.9"/>
				<path class="st0" d="M29.6,19.9h-1.2c-0.2,0-0.3,0.1-0.3,0.3v4.3L24.8,20c0,0,0,0,0,0c0,0,0,0,0,0c0,0,0,0,0,0c0,0,0,0,0,0
					c0,0,0,0,0,0c0,0,0,0,0,0c0,0,0,0,0,0c0,0,0,0,0,0c0,0,0,0,0,0c0,0,0,0,0,0c0,0,0,0,0,0c0,0,0,0,0,0c0,0,0,0,0,0c0,0,0,0,0,0
					c0,0,0,0,0,0c0,0,0,0,0,0c0,0,0,0,0,0c0,0,0,0,0,0c0,0,0,0,0,0h-1.2c-0.2,0-0.3,0.1-0.3,0.3v7.2c0,0.2,0.1,0.3,0.3,0.3h1.2
					c0.2,0,0.3-0.1,0.3-0.3v-4.3l3.3,4.5c0,0,0.1,0.1,0.1,0.1c0,0,0,0,0,0c0,0,0,0,0,0c0,0,0,0,0,0c0,0,0,0,0,0c0,0,0,0,0,0
					c0,0,0,0,0,0c0,0,0,0,0,0c0,0,0,0,0,0c0,0,0.1,0,0.1,0h1.2c0.2,0,0.3-0.1,0.3-0.3v-7.2C30,20,29.8,19.9,29.6,19.9"/>
				<path class="st0" d="M18.8,26h-3.2v-5.8c0-0.2-0.1-0.3-0.3-0.3h-1.2c-0.2,0-0.3,0.1-0.3,0.3v7.2v0c0,0.1,0,0.2,0.1,0.2
					c0,0,0,0,0,0c0,0,0,0,0,0c0.1,0.1,0.1,0.1,0.2,0.1h0h4.7c0.2,0,0.3-0.1,0.3-0.3v-1.2C19.1,26.1,19,26,18.8,26"/>
				<path class="st0" d="M36.1,21.7c0.2,0,0.3-0.1,0.3-0.3v-1.2c0-0.2-0.1-0.3-0.3-0.3h-4.7h0c-0.1,0-0.2,0-0.2,0.1c0,0,0,0,0,0
					c0,0,0,0,0,0c-0.1,0.1-0.1,0.1-0.1,0.2v0v7.2v0c0,0.1,0,0.2,0.1,0.2c0,0,0,0,0,0c0,0,0,0,0,0c0.1,0.1,0.1,0.1,0.2,0.1h0h4.7
					c0.2,0,0.3-0.1,0.3-0.3v-1.2c0-0.2-0.1-0.3-0.3-0.3h-3.2v-1.2h3.2c0.2,0,0.3-0.1,0.3-0.3v-1.2c0-0.2-0.1-0.3-0.3-0.3h-3.2v-1.2
					H36.1z"/>
			</g>
		</g>
	</g>
</g>
</svg>
